<svg height="512pt" viewBox="-156 0 512 512" width="512pt" xmlns="http://www.w3.org/2000/svg"><path d="m119.117188 393.792969v-33.441407h-15.015626v33.441407c-13.011718 3.378906-23.773437 15.820312-23.773437 30.621093 0 17.386719 14.269531 31.53125 31.65625 31.53125s31.34375-14.144531 31.34375-31.53125c0-14.800781-10.199219-27.242187-24.210937-30.621093zm-7.007813 47.136719c-9.105469 0-16.515625-7.410157-16.515625-16.515626 0-9.105468 7.410156-16.515624 16.515625-16.515624s16.515625 7.410156 16.515625 16.515624c0 9.105469-7.410156 16.515626-16.515625 16.515626zm0 0"/><path d="m151.148438 346.238281v-169.066406h-79.078126v169.066406c-29.027343 14.851563-47.796874 45.011719-47.796874 78.175781 0 48.296876 39.414062 87.585938 87.710937 87.585938s87.398437-39.289062 87.398437-87.585938c0-33.164062-18.207031-63.324218-48.234374-78.175781zm-39.039063 150.746094c-40.015625 0-72.570313-32.554687-72.570313-72.570313 0-28.859374 16.84375-54.976562 43.292969-66.535156l4.253907-1.96875v-163.722656h49.046874v163.722656l4.75 1.96875c26.453126 11.558594 43.671876 37.675782 43.671876 66.535156 0 40.015626-32.429688 72.570313-72.445313 72.570313zm0 0"/><path d="m104.101562 208.203125h15.015626v40.039063h-15.015626zm0 0"/><path d="m104.101562 264.257812h15.015626v16.015626h-15.015626zm0 0"/><path d="m104.101562 296.289062h15.015626v16.015626h-15.015626zm0 0"/><path d="m104.101562 328.320312h15.015626v16.015626h-15.015626zm0 0"/><path d="m0 193.1875h56.054688v15.015625h-56.054688zm0 0"/><path d="m24.023438 225.21875h32.03125v15.015625h-32.03125zm0 0"/><path d="m0 257.25h56.054688v15.015625h-56.054688zm0 0"/><path d="m0 321.3125h56.054688v15.015625h-56.054688zm0 0"/><path d="m24.023438 289.28125h32.03125v15.015625h-32.03125zm0 0"/><path d="m112.109375 119.617188c21.800781 0 39.539063-17.738282 39.539063-39.539063s-17.738282-39.539063-39.539063-39.539063-39.539063 17.738282-39.539063 39.539063 17.738282 39.539063 39.539063 39.539063zm0-64.0625c13.523437 0 24.523437 11 24.523437 24.523437s-11 24.523437-24.523437 24.523437-24.523437-11-24.523437-24.523437 11-24.523437 24.523437-24.523437zm0 0"/><path d="m104.101562 0h15.015626v24.023438h-15.015626zm0 0"/><path d="m104.101562 136.132812h15.015626v24.023438h-15.015626zm0 0"/><path d="m168.164062 73.070312h24.023438v15.015626h-24.023438zm0 0"/><path d="m32.03125 73.070312h24.023438v15.015626h-24.023438zm0 0"/><path d="m163.425781 142.011719-16.988281-16.984375 10.617188-10.617188 16.988281 16.984375zm0 0"/><path d="m60.792969 18.144531 16.984375 16.984375-10.613282 10.617188-16.988281-16.984375zm0 0"/><path d="m163.421875 18.144531 10.617187 10.617188-16.984374 16.984375-10.617188-10.617188zm0 0"/><path d="m60.796875 142.011719-10.617187-10.617188 16.984374-16.984375 10.617188 10.617188zm0 0"/></svg>