<svg height="512pt" viewBox="-148 0 512 512" width="512pt" xmlns="http://www.w3.org/2000/svg"><path d="m119.234375 393.679688v-33.476563h-15.03125v33.476563c-13.023437 3.378906-23.796875 15.835937-23.796875 30.648437 0 17.402344 14.285156 31.5625 31.6875 31.5625s31.375-14.160156 31.375-31.5625c0-14.8125-10.207031-27.269531-24.234375-30.648437zm-7.015625 47.179687c-9.117188 0-16.53125-7.414063-16.53125-16.53125 0-9.113281 7.414062-16.53125 16.53125-16.53125s16.53125 7.417969 16.53125 16.53125c0 9.117187-7.414062 16.53125-16.53125 16.53125zm0 0"/><path d="m151.296875 346.078125v-169.234375h-79.15625v169.234375c-29.054687 14.863281-47.84375 45.054687-47.84375 78.25 0 48.34375 39.453125 87.671875 87.796875 87.671875s87.484375-39.328125 87.484375-87.671875c0-33.195313-18.222656-63.386719-48.28125-78.25zm-39.078125 150.890625c-40.054688 0-72.640625-32.585938-72.640625-72.640625 0-28.890625 16.859375-55.03125 43.335937-66.601563l4.257813-1.96875v-163.882812h49.09375v163.882812l4.757813 1.96875c26.476562 11.570313 43.710937 37.710938 43.710937 66.601563 0 40.054687-32.460937 72.640625-72.515625 72.640625zm0 0"/><path d="m104.203125 231.953125h15.03125v16.03125h-15.03125zm0 0"/><path d="m104.203125 264.015625h15.03125v16.03125h-15.03125zm0 0"/><path d="m104.203125 296.078125h15.03125v16.03125h-15.03125zm0 0"/><path d="m0 192.875h56.109375v15.03125h-56.109375zm0 0"/><path d="m24.046875 224.9375h32.0625v15.03125h-32.0625zm0 0"/><path d="m0 257.003906h56.109375v15.027344h-56.109375zm0 0"/><path d="m0 321.128906h56.109375v15.027344h-56.109375zm0 0"/><path d="m24.046875 289.066406h32.0625v15.027344h-32.0625zm0 0"/><path d="m58.8125 106.65625 10.625 10.5 18.734375-18.796875 13.421875 13.390625-18.734375 18.71875 10.375 10.617188 10.96875-11.226563v21.9375h15.03125v-21.9375l11.46875 11.21875 10.75-10.625-18.667969-18.734375 13.449219-13.421875 18.75 18.734375 10.632813-10.375-11.210938-10.96875h21.9375v-15.03125h-21.9375l11.21875-11.46875-10.625-10.75-18.734375 18.667969-13.417969-13.449219 18.730469-18.75-10.875-10.632812-11.46875 11.210937v-21.9375h-15.03125v21.9375l-10.96875-11.21875-10.5 10.625 18.796875 18.734375-13.390625 13.417969-18.71875-18.730469-10.617187 10.875 11.226562 11.46875h-21.9375v15.03125h21.9375zm53.40625-32.40625 13.421875 13.421875-13.421875 13.417969-13.417969-13.417969zm0 0"/><path d="m192.375 0c-12.984375 0-23.546875 10.5625-23.546875 23.546875s10.5625 23.546875 23.546875 23.546875 23.546875-10.5625 23.546875-23.546875-10.5625-23.546875-23.546875-23.546875zm0 32.0625c-4.695312 0-8.515625-3.820312-8.515625-8.515625s3.820313-8.515625 8.515625-8.515625 8.515625 3.820312 8.515625 8.515625-3.820313 8.515625-8.515625 8.515625zm0 0"/><path d="m24.046875 79.15625c12.984375 0 23.546875-10.5625 23.546875-23.546875s-10.5625-23.546875-23.546875-23.546875-23.546875 10.5625-23.546875 23.546875 10.5625 23.546875 23.546875 23.546875zm0-32.0625c4.695313 0 8.515625 3.820312 8.515625 8.515625s-3.820312 8.515625-8.515625 8.515625-8.515625-3.820312-8.515625-8.515625 3.820312-8.515625 8.515625-8.515625zm0 0"/><path d="m184.359375 128.25c-12.984375 0-23.546875 10.5625-23.546875 23.546875s10.5625 23.546875 23.546875 23.546875 23.546875-10.5625 23.546875-23.546875-10.5625-23.546875-23.546875-23.546875zm0 32.0625c-4.695313 0-8.515625-3.820312-8.515625-8.515625s3.820312-8.515625 8.515625-8.515625 8.515625 3.820312 8.515625 8.515625-3.820312 8.515625-8.515625 8.515625zm0 0"/></svg>