<svg height="512pt" viewBox="-113 0 512 512" width="512pt" xmlns="http://www.w3.org/2000/svg"><path d="m187.074219 296.578125h-72.703125l32.289062-48.683594-12.503906-8.210937-47.867188 71.925781h71.582032l-40.078125 56.109375h62.683593l-88.554687 106.261719 36.597656-73.199219h-72.140625l32.0625-64.125h-57.167968l58.113281-145.28125h59.039062v-15.03125h-69.214843l-70.136719 175.34375h55.050781l-32.0625 64.125h72.140625l-48.09375 96.1875h23.695313l132.757812-159.3125h-65.566406zm0 0"/><path d="m184.359375 151.296875-40.078125 80.15625h23.453125l118.15625-127.25h-61.183594l24.050781-48.09375h-72.914062l-47.59375 95.1875zm.773437-80.15625h39.304688l-24.046875 48.09375h51.035156l-74.167969 79.875 31.417969-62.84375h-56.109375zm0 0"/><path d="m16.03125 175.34375h23.453125l118.15625-127.25h-61.183594l24.050781-48.09375h-72.914062l-47.59375 95.1875h56.109375zm8.285156-95.1875 32.566406-65.125h39.304688l-24.046875 48.09375h51.035156l-74.171875 79.875 31.425782-62.84375zm0 0"/></svg>