<svg height="512pt" viewBox="0 -16 512 512" width="512pt" xmlns="http://www.w3.org/2000/svg"><path d="m143.28125 264.265625c0-2.367187.144531-4.878906.4375-7.210937l-14.914062-1.921876c-.367188 2.949219-.554688 6.175782-.554688 9.164063 0 39.503906 32.136719 71.859375 71.640625 71.859375h40.078125v-15.027344h-40.078125c-31.214844 0-56.609375-25.648437-56.609375-56.863281zm0 0"/><path d="m461.601562 224.691406c1.519532-8.148437 2.304688-16.449218 2.304688-24.800781 0-74.863281-60.902344-135.765625-135.765625-135.765625-58.808594 0-110.652344 37.511719-129.003906 93.339844l14.277343 4.695312c16.320313-49.648437 62.425782-83.003906 114.726563-83.003906 66.574219 0 120.734375 54.160156 120.734375 120.734375 0 27.757813-9.152344 53.847656-26.476562 75.457031l11.726562 9.402344c10.789062-13.460938 18.855469-28.867188 23.851562-45.242188 21.640626.835938 38.992188 18.945313 38.992188 40.789063 0 22.375-18.203125 40.832031-40.578125 40.832031h-40.078125v15.027344h40.078125c30.664063 0 55.609375-25.195312 55.609375-55.859375 0-28.90625-22.171875-52.972656-50.398438-55.605469zm0 0"/><path d="m280.046875 240.96875h16.03125v15.03125h-16.03125zm0 0"/><path d="m312.109375 240.96875h16.03125v15.03125h-16.03125zm0 0"/><path d="m344.171875 240.96875h16.03125v15.03125h-16.03125zm0 0"/><path d="m364.347656 273.035156h-72.914062l-47.59375 95.183594h56.109375l-40.078125 80.15625h23.453125l118.160156-127.246094h-61.183594zm2.671875 63.121094-74.171875 79.875 31.421875-62.839844h-56.109375l32.5625-65.128906h39.304688l-24.046875 48.09375zm0 0"/><path d="m213.660156 196.707031 4.429688-5.273437-17.488282-17.5-5.21875 3.917968c-12.644531 9.5-27.71875 14.523438-43.585937 14.523438-40.054687 0-72.640625-32.585938-72.640625-72.640625s32.585938-72.640625 72.640625-72.640625c15.867187 0 30.941406 5.019531 43.589844 14.523438l5.21875 3.921874 17.484375-17.507812-4.429688-5.273438c-22.492187-26.773437-57.605468-42.757812-93.925781-42.757812-66.023437 0-119.734375 53.710938-119.734375 119.734375 0 66.019531 53.710938 119.734375 119.734375 119.734375 36.320313 0 71.433594-15.984375 93.925781-42.761719zm-93.925781 27.730469c-57.734375 0-104.703125-46.96875-104.703125-104.703125s46.96875-104.703125 104.703125-104.703125c26.070313 0 52.226563 9.839844 71.453125 26.339844-12.128906-6.121094-25.511719-9.308594-39.390625-9.308594-48.34375 0-87.671875 39.328125-87.671875 87.671875s39.328125 87.671875 87.671875 87.671875c13.878906 0 27.261719-3.1875 39.386719-9.3125-19.222656 16.503906-45.378906 26.34375-71.449219 26.34375zm0 0"/><path d="m432.34375 351.765625-6.683594 13.019531c-3.957031 7.707032-16.863281 33.613282-16.863281 43.511719 0 12.984375 10.5625 23.546875 23.546875 23.546875s23.546875-10.5625 23.546875-23.546875c0-9.898437-12.90625-35.804687-16.859375-43.511719zm0 65.046875c-4.695312 0-8.515625-3.820312-8.515625-8.515625.015625-2.9375 3.777344-12.511719 8.515625-22.859375 4.742188 10.34375 8.5 19.921875 8.515625 22.859375 0 4.695313-3.820313 8.515625-8.515625 8.515625zm0 0"/><path d="m368.21875 399.859375-6.683594 13.019531c-3.957031 7.707032-16.863281 33.613282-16.863281 43.511719 0 12.984375 10.5625 23.546875 23.546875 23.546875s23.546875-10.5625 23.546875-23.546875c0-9.898437-12.90625-35.804687-16.863281-43.511719zm0 65.046875c-4.695312 0-8.515625-3.820312-8.515625-8.515625.015625-2.9375 3.777344-12.511719 8.515625-22.859375 4.742188 10.34375 8.5 19.921875 8.515625 22.859375 0 4.695313-3.820313 8.515625-8.515625 8.515625zm0 0"/><path d="m143.78125 351.765625-6.683594 13.019531c-3.957031 7.707032-16.863281 33.613282-16.863281 43.511719 0 12.984375 10.5625 23.546875 23.546875 23.546875s23.546875-10.5625 23.546875-23.546875c0-9.898437-12.90625-35.804687-16.863281-43.511719zm0 65.046875c-4.695312 0-8.515625-3.820312-8.515625-8.515625.011719-2.9375 3.773437-12.511719 8.515625-22.859375 4.742188 10.34375 8.5 19.921875 8.515625 22.859375 0 4.695313-3.820313 8.515625-8.515625 8.515625zm0 0"/><path d="m207.90625 399.859375-6.683594 13.019531c-3.957031 7.707032-16.863281 33.613282-16.863281 43.511719 0 12.984375 10.5625 23.546875 23.546875 23.546875s23.546875-10.5625 23.546875-23.546875c0-9.898437-12.90625-35.804687-16.863281-43.511719zm0 65.046875c-4.695312 0-8.515625-3.820312-8.515625-8.515625.015625-2.9375 3.773437-12.511719 8.515625-22.859375 4.738281 10.34375 8.5 19.921875 8.515625 22.859375 0 4.695313-3.820313 8.515625-8.515625 8.515625zm0 0"/></svg>