<svg height="512pt" viewBox="0 0 512 512" width="512pt" xmlns="http://www.w3.org/2000/svg"><path d="m184 127.5v-15c-39.425781 0-71.5 32.074219-71.5 71.5h15c0-31.152344 25.347656-56.5 56.5-56.5zm0 0"/><path d="m79.5 184c0-57.621094 46.878906-104.5 104.5-104.5 24.550781 0 48.410156 8.683594 67.175781 24.449219l9.648438-11.484375c-21.464844-18.035156-48.75-27.964844-76.824219-27.964844-65.894531 0-119.5 53.605469-119.5 119.5 0 36.835938 16.609375 71.0625 45.570312 93.894531l9.289063-11.78125c-25.332031-19.96875-39.859375-49.898437-39.859375-82.113281zm0 0"/><path d="m461.199219 256.75c1.515625-8.128906 2.300781-16.414062 2.300781-24.75 0-74.714844-60.785156-135.5-135.5-135.5-72.324219 0-131.59375 56.957031-135.3125 128.371094-36.003906 3.675781-64.1875 34.421875-64.1875 71.378906 0 39.425781 32.074219 71.75 71.5 71.75h256c30.601562 0 55.5-25.148438 55.5-55.75 0-28.847656-22.128906-52.867188-50.300781-55.5zm-5.199219 96.25h-256c-31.152344 0-56.5-25.597656-56.5-56.75 0-28.691406 21.503906-52.566406 49.238281-56.144531.511719 8.765625 1.855469 17.378906 4.03125 25.828125l14.527344-3.773438c-2.519531-9.785156-3.796875-19.9375-3.796875-30.144531 0-66.445313 54.054688-120.507813 120.5-120.507813 66.441406 0 120.5 54.050782 120.5 120.496094 0 27.699219-9.140625 53.738282-26.425781 75.308594l11.703125 9.378906c10.765625-13.429687 18.816406-28.808594 23.800781-45.152344 21.601563.835938 38.921875 18.910157 38.921875 40.710938 0 22.332031-18.167969 40.75-40.5 40.75zm0 0"/><path d="m240.5 232h15c0-39.976562 32.523438-72.5 72.5-72.5v-15c-48.246094 0-87.5 39.253906-87.5 87.5zm0 0"/><path d="m280 313h16v15h-16zm0 0"/><path d="m312 313h16v15h-16zm0 0"/><path d="m344 313h16v15h-16zm0 0"/><path d="m0 177h48v15h-48zm0 0"/><path d="m176 0h15v48h-15zm0 0"/><path d="m314.695312 42.695312 10.605469 10.605469-40 40-10.605469-10.605469zm0 0"/><path d="m42.695312 314.695312 40-40 10.605469 10.605469-40 40zm0 0"/><path d="m53.304688 42.695312 40 40-10.609376 10.605469-40-40zm0 0"/><path d="m88 320h15v128h-15zm0 0"/><path d="m128 368h15v112h-15zm0 0"/><path d="m168 496h15v16h-15zm0 0"/><path d="m168 384h15v96h-15zm0 0"/><path d="m208 384h15v128h-15zm0 0"/><path d="m248 384h15v80h-15zm0 0"/><path d="m288 384h15v128h-15zm0 0"/><path d="m328 384h15v112h-15zm0 0"/><path d="m368 464h15v16h-15zm0 0"/><path d="m368 384h15v64h-15zm0 0"/><path d="m408 384h15v128h-15zm0 0"/></svg>