<svg height="512pt" viewBox="0 0 512 512" width="512pt" xmlns="http://www.w3.org/2000/svg"><path d="m127.625 184.179688c0-31.183594 25.371094-56.554688 56.554688-56.554688v-15.015625c-39.464844 0-71.570313 32.105469-71.570313 71.570313zm0 0"/><path d="m79.578125 184.179688c0-57.679688 46.921875-104.601563 104.601563-104.601563 24.578124 0 48.457031 8.691406 67.242187 24.472656l9.65625-11.496093c-21.484375-18.050782-48.792969-27.992188-76.898437-27.992188-65.957032 0-119.617188 53.660156-119.617188 119.617188 0 36.875 16.625 71.128906 45.617188 93.984374l9.296874-11.789062c-25.355468-19.992188-39.898437-49.949219-39.898437-82.195312zm0 0"/><path d="m432.421875 383.953125-6.679687 13.007813c-3.949219 7.695312-16.84375 33.578124-16.84375 43.46875 0 12.972656 10.554687 23.523437 23.523437 23.523437 12.972656 0 23.523437-10.550781 23.523437-23.523437 0-9.890626-12.894531-35.773438-16.84375-43.46875zm0 64.984375c-4.691406 0-8.507813-3.816406-8.507813-8.507812.015626-2.933594 3.773438-12.5 8.507813-22.835938 4.738281 10.335938 8.492187 19.898438 8.507813 22.835938 0 4.691406-3.816407 8.507812-8.507813 8.507812zm0 0"/><path d="m368.359375 432-6.679687 13.007812c-3.949219 7.699219-16.84375 33.578126-16.84375 43.46875 0 12.972657 10.554687 23.523438 23.523437 23.523438 12.972656 0 23.523437-10.550781 23.523437-23.523438 0-9.890624-12.894531-35.769531-16.84375-43.46875zm0 64.984375c-4.691406 0-8.507813-3.816406-8.507813-8.507813.015626-2.933593 3.773438-12.5 8.507813-22.835937 4.738281 10.335937 8.492187 19.898437 8.507813 22.835937 0 4.691407-3.816407 8.507813-8.507813 8.507813zm0 0"/><path d="m144.140625 383.953125-6.679687 13.007813c-3.949219 7.695312-16.84375 33.578124-16.84375 43.46875 0 12.972656 10.554687 23.523437 23.523437 23.523437 12.972656 0 23.523437-10.550781 23.523437-23.523437 0-9.890626-12.894531-35.773438-16.84375-43.46875zm0 64.984375c-4.691406 0-8.507813-3.816406-8.507813-8.507812.015626-2.933594 3.773438-12.5 8.507813-22.835938 4.738281 10.335938 8.492187 19.898438 8.507813 22.835938 0 4.691406-3.816407 8.507812-8.507813 8.507812zm0 0"/><path d="m208.203125 432-6.679687 13.007812c-3.949219 7.699219-16.84375 33.578126-16.84375 43.46875 0 12.972657 10.554687 23.523438 23.523437 23.523438 12.972656 0 23.523437-10.550781 23.523437-23.523438 0-9.890624-12.894531-35.769531-16.84375-43.46875zm0 64.984375c-4.691406 0-8.507813-3.816406-8.507813-8.507813.015626-2.933593 3.773438-12.5 8.507813-22.835937 4.738281 10.335937 8.492187 19.898437 8.507813 22.835937 0 4.691407-3.816407 8.507813-8.507813 8.507813zm0 0"/><path d="m461.648438 257.003906c1.519531-8.140625 2.304687-16.433594 2.304687-24.777344 0-74.789062-60.84375-135.632812-135.632813-135.632812-72.394531 0-131.722656 57.011719-135.445312 128.5-36.039062 3.675781-64.25 34.453125-64.25 71.445312 0 39.464844 32.105469 71.820313 71.570312 71.820313h40.039063v-15.015625h-40.039063c-31.183593 0-56.554687-25.621094-56.554687-56.804688 0-28.71875 21.527344-52.617187 49.289063-56.199218.511718 8.773437 1.855468 17.398437 4.03125 25.851562l14.539062-3.773437c-2.519531-9.796875-3.796875-19.957031-3.796875-30.175781 0-66.507813 54.109375-120.625 120.617187-120.625 66.507813 0 120.617188 54.105468 120.617188 120.613281 0 27.726562-9.148438 53.792969-26.453125 75.382812l11.714844 9.386719c10.777343-13.441406 18.835937-28.835938 23.828125-45.195312 21.621094.835937 38.957031 18.929687 38.957031 40.75 0 22.355468-18.1875 40.789062-40.539063 40.789062h-40.039062v15.015625h40.039062c30.632813 0 55.554688-25.171875 55.554688-55.804687 0-28.875-22.148438-52.917969-50.351562-55.550782zm0 0"/><path d="m328.320312 144.640625c-48.292968 0-87.585937 39.289063-87.585937 87.585937h15.015625c0-40.015624 32.554688-72.570312 72.570312-72.570312zm0 0"/><path d="m280.273438 273.265625h16.015624v15.015625h-16.015624zm0 0"/><path d="m312.304688 273.265625h16.015624v15.015625h-16.015624zm0 0"/><path d="m344.335938 273.265625h16.015624v15.015625h-16.015624zm0 0"/><path d="m0 177.171875h48.046875v15.015625h-48.046875zm0 0"/><path d="m176.171875 0h15.015625v48.046875h-15.015625zm0 0"/><path d="m314.988281 42.742188 10.617188 10.617187-40.039063 40.039063-10.617187-10.617188zm0 0"/><path d="m53.355469 325.625-10.617188-10.617188 40.039063-40.039062 10.617187 10.617188zm0 0"/><path d="m53.355469 42.738281 40.039062 40.039063-10.617187 10.617187-40.039063-40.039062zm0 0"/><path d="m364.492188 305.296875h-72.84375l-47.546876 95.09375h56.058594l-40.042968 80.078125h23.429687l118.046875-127.125h-61.125zm2.667968 63.0625-74.097656 79.796875 31.390625-62.78125h-56.054687l32.53125-65.0625h39.265624l-24.023437 48.046875zm0 0"/></svg>