<svg height="512pt" viewBox="0 0 512 512" width="512pt" xmlns="http://www.w3.org/2000/svg"><path d="m87.585938 287.78125h15.015624v160.15625h-15.015624zm0 0"/><path d="m127.625 335.828125h15.015625v144.140625h-15.015625zm0 0"/><path d="m167.664062 495.984375h15.015626v16.015625h-15.015626zm0 0"/><path d="m167.664062 351.84375h15.015626v128.125h-15.015626zm0 0"/><path d="m207.703125 351.84375h15.015625v160.15625h-15.015625zm0 0"/><path d="m247.742188 351.84375h15.015624v112.109375h-15.015624zm0 0"/><path d="m287.78125 351.84375h15.015625v160.15625h-15.015625zm0 0"/><path d="m327.820312 351.84375h15.015626v144.140625h-15.015626zm0 0"/><path d="m367.859375 463.953125h15.015625v16.015625h-15.015625zm0 0"/><path d="m367.859375 351.84375h15.015625v96.09375h-15.015625zm0 0"/><path d="m407.898438 351.84375h15.015624v160.15625h-15.015624zm0 0"/><path d="m461.148438 224.46875c1.519531-8.136719 2.304687-16.429688 2.304687-24.773438 0-74.789062-60.84375-135.632812-135.632813-135.632812-58.753906 0-110.542968 37.472656-128.878906 93.25l14.265625 4.6875c16.300781-49.597656 62.363281-82.921875 114.613281-82.921875 66.507813 0 120.617188 54.109375 120.617188 120.617187 0 27.730469-9.148438 53.796876-26.453125 75.382813l11.714844 9.390625c10.777343-13.441406 18.835937-28.835938 23.828125-45.195312 21.621094.835937 38.957031 18.929687 38.957031 40.75 0 22.355468-18.183594 40.789062-40.539063 40.789062h-256.25c-31.183593 0-56.554687-25.621094-56.554687-56.804688 0-2.367187.148437-4.875.4375-7.203124l-14.898437-1.921876c-.367188 2.941407-.554688 6.167969-.554688 9.15625 0 39.464844 32.105469 71.789063 71.570312 71.789063h256.25c30.632813 0 55.554688-25.171875 55.554688-55.804687 0-28.878907-22.148438-52.917969-50.351562-55.554688zm0 0"/><path d="m279.773438 208.703125h16.015624v15.015625h-16.015624zm0 0"/><path d="m311.804688 208.703125h16.015624v15.015625h-16.015624zm0 0"/><path d="m343.835938 208.703125h16.015624v15.015625h-16.015624zm0 0"/><path d="m213.449219 196.515625 4.425781-5.269531-17.46875-17.484375-5.210938 3.914062c-12.636718 9.492188-27.695312 14.511719-43.546874 14.511719-40.015626 0-72.570313-32.554688-72.570313-72.570312 0-40.015626 32.554687-72.570313 72.570313-72.570313 15.851562 0 30.910156 5.015625 43.546874 14.511719l5.214844 3.917968 17.464844-17.492187-4.425781-5.265625c-22.46875-26.75-57.546875-42.71875-93.832031-42.71875-65.957032 0-119.617188 53.660156-119.617188 119.617188 0 65.957031 53.660156 119.617187 119.617188 119.617187 36.285156 0 71.363281-15.96875 93.832031-42.71875zm-93.832031 27.703125c-57.675782 0-104.601563-46.921875-104.601563-104.601562 0-57.679688 46.925781-104.601563 104.601563-104.601563 26.046874 0 52.175781 9.832031 71.382812 26.316406-12.117188-6.117187-25.484375-9.300781-39.351562-9.300781-48.296876 0-87.585938 39.289062-87.585938 87.585938 0 48.292968 39.289062 87.585937 87.585938 87.585937 13.867187 0 27.234374-3.183594 39.347656-9.300781-19.203125 16.484375-45.332032 26.316406-71.378906 26.316406zm0 0"/></svg>