<svg height="512pt" viewBox="0 0 512 512" width="512pt" xmlns="http://www.w3.org/2000/svg"><path d="m199.695312 335.828125h40.039063v-15.015625h-40.039063c-31.183593 0-56.554687-25.621094-56.554687-56.804688 0-2.371093.148437-4.875.4375-7.203124l-14.898437-1.921876c-.367188 2.941407-.554688 6.167969-.554688 9.15625 0 39.464844 32.105469 71.789063 71.570312 71.789063zm0 0"/><path d="m213.207031 162c16.300781-49.597656 62.363281-82.921875 114.613281-82.921875 66.507813 0 120.617188 54.109375 120.617188 120.617187 0 27.730469-9.148438 53.796876-26.453125 75.382813l11.714844 9.390625c10.777343-13.441406 18.835937-28.835938 23.828125-45.195312 21.621094.835937 38.957031 18.929687 38.957031 40.75 0 22.355468-18.183594 40.789062-40.539063 40.789062h-56.054687v15.015625h56.054687c30.632813 0 55.554688-25.171875 55.554688-55.804687 0-28.875-22.148438-52.792969-50.351562-55.425782 1.519531-8.140625 2.304687-16.496094 2.304687-24.839844 0-74.789062-60.84375-135.664062-135.632813-135.664062-58.753906 0-110.542968 37.457031-128.878906 93.234375zm0 0"/><path d="m279.773438 208.703125h16.015624v15.015625h-16.015624zm0 0"/><path d="m311.804688 208.703125h16.015624v15.015625h-16.015624zm0 0"/><path d="m343.835938 208.703125h16.015624v15.015625h-16.015624zm0 0"/><path d="m213.449219 196.515625 4.425781-5.269531-17.46875-17.484375-5.210938 3.914062c-12.636718 9.492188-27.695312 14.511719-43.546874 14.511719-40.015626 0-72.570313-32.554688-72.570313-72.570312 0-40.015626 32.554687-72.570313 72.570313-72.570313 15.851562 0 30.910156 5.015625 43.546874 14.511719l5.214844 3.917968 17.464844-17.492187-4.425781-5.265625c-22.46875-26.75-57.546875-42.71875-93.832031-42.71875-65.957032 0-119.617188 53.660156-119.617188 119.617188 0 65.957031 53.660156 119.617187 119.617188 119.617187 36.285156 0 71.363281-15.96875 93.832031-42.71875zm-93.832031 27.703125c-57.675782 0-104.601563-46.921875-104.601563-104.601562 0-57.679688 46.925781-104.601563 104.601563-104.601563 26.046874 0 52.175781 9.832031 71.382812 26.316406-12.117188-6.117187-25.484375-9.300781-39.351562-9.300781-48.296876 0-87.585938 39.289062-87.585938 87.585938 0 48.292968 39.289062 87.585937 87.585938 87.585937 13.867187 0 27.234374-3.183594 39.347656-9.300781-19.203125 16.484375-45.332032 26.316406-71.378906 26.316406zm0 0"/><path d="m362.550781 357.152344 10.617188-10.367188-11.207031-10.957031h21.914062v-15.015625h-21.914062l11.207031-11.457031-10.617188-10.742188-18.714843 18.652344-13.40625-13.4375 18.714843-18.730469-10.867187-10.625-11.457032 11.199219v-21.914063h-15.015624v21.914063l-10.957032-11.207031-10.492187 10.617187 18.78125 18.714844-13.375 13.40625-18.699219-18.714844-10.613281 10.867188 11.21875 11.457031h-21.917969v15.015625h21.914062l-11.207031 10.957031 10.617188 10.492188 18.714843-18.777344 13.40625 13.375-18.714843 18.699219 10.367187 10.609375 10.957032-11.214844v21.914062h15.011718v-21.914062l11.457032 11.207031 10.746093-10.617187-18.652343-18.714844 13.4375-13.40625zm-42.738281-15.925782-13.40625-13.40625 13.40625-13.40625 13.40625 13.40625zm0 0"/><path d="m261.058594 429.472656-10.617188-10.742187-18.714844 18.652343-13.40625-13.4375 18.714844-18.730468-10.867187-10.625-11.457031 11.199218v-21.914062h-15.015626v21.914062l-10.957031-11.207031-10.492187 10.617188 18.777344 18.714843-13.375 13.40625-18.699219-18.714843-10.609375 10.867187 11.214844 11.457032h-21.914063v15.015624h21.914063l-11.207032 10.957032 10.617188 10.492187 18.714844-18.777343 13.40625 13.375-18.714844 18.699218 10.367187 10.609375 10.957031-11.214843v21.914062h15.011719v-21.914062l11.457031 11.207031 10.746094-10.617188-18.652344-18.714843 13.4375-13.40625 18.730469 18.714843 10.625-10.367187-11.199219-10.957032h21.914063v-15.015624h-21.914063zm-53.355469 31.871094-13.40625-13.40625 13.40625-13.40625 13.40625 13.40625zm0 0"/><path d="m485.277344 429.472656-10.617188-10.742187-18.714844 18.652343-13.40625-13.4375 18.714844-18.730468-10.867187-10.625-11.457031 11.199218v-21.914062h-15.015626v21.914062l-10.957031-11.207031-10.492187 10.617188 18.78125 18.714843-13.375 13.40625-18.699219-18.714843-10.613281 10.867187 11.21875 11.457032h-21.917969v15.015624h21.914063l-11.207032 10.957032 10.617188 10.492187 18.714844-18.777343 13.40625 13.375-18.714844 18.699218 10.367187 10.609375 10.957031-11.214843v21.914062h15.011719v-21.914062l11.460938 11.207031 10.742187-10.617188-18.652344-18.714843 13.4375-13.40625 18.730469 18.714843 10.625-10.367187-11.199219-10.957032h21.914063v-15.015624h-21.914063zm-53.355469 31.871094-13.40625-13.40625 13.40625-13.40625 13.40625 13.40625zm0 0"/></svg>