<svg height="512pt" viewBox="0 -76 512 512" width="512pt" xmlns="http://www.w3.org/2000/svg"><path d="m424.828125 128.25h15.03125c0-13.535156 11.011719-24.546875 24.546875-24.546875v-15.03125c-13.535156 0-24.546875-11.011719-24.546875-24.546875h-15.03125c0 13.535156-11.011719 24.546875-24.546875 24.546875v15.03125c13.535156 0 24.546875 11.011719 24.546875 24.546875zm7.515625-40.964844c2.476562 3.421875 5.484375 6.425782 8.902344 8.902344-3.417969 2.476562-6.425782 5.484375-8.902344 8.902344-2.476562-3.417969-5.480469-6.425782-8.902344-8.902344 3.421875-2.476562 6.425782-5.480469 8.902344-8.902344zm0 0"/><path d="m352.6875 64.125h15.03125c0-13.535156 11.011719-24.546875 24.546875-24.546875v-15.03125c-13.535156 0-24.546875-11.011719-24.546875-24.546875h-15.03125c0 13.535156-11.011719 24.546875-24.546875 24.546875v15.03125c13.535156 0 24.546875 11.011719 24.546875 24.546875zm7.515625-40.964844c2.476563 3.417969 5.484375 6.425782 8.902344 8.902344-3.417969 2.476562-6.425781 5.484375-8.902344 8.902344-2.476563-3.417969-5.480469-6.425782-8.902344-8.902344 3.421875-2.476562 6.425781-5.484375 8.902344-8.902344zm0 0"/><path d="m104.203125 152.296875h15.03125c0-13.535156 11.011719-24.546875 24.546875-24.546875v-15.03125c-13.535156 0-24.546875-11.011719-24.546875-24.546875h-15.03125c0 13.535156-11.011719 24.546875-24.546875 24.546875v15.03125c13.535156 0 24.546875 11.011719 24.546875 24.546875zm7.515625-40.964844c2.476562 3.421875 5.480469 6.425781 8.902344 8.902344-3.421875 2.476563-6.425782 5.484375-8.902344 8.902344-2.476562-3.417969-5.484375-6.425781-8.902344-8.902344 3.417969-2.476563 6.425782-5.480469 8.902344-8.902344zm0 0"/><path d="m79.65625 305.597656h16.03125v15.027344h-16.03125zm0 0"/><path d="m111.71875 305.597656h16.03125v15.027344h-16.03125zm0 0"/><path d="m143.78125 305.597656h16.03125v15.027344h-16.03125zm0 0"/><path d="m80.15625 272.53125h15.03125c0-17.953125 14.605469-32.5625 32.5625-32.5625v-15.03125c-26.242188 0-47.59375 21.351562-47.59375 47.59375zm0 0"/><path d="m384.25 239.96875v-15.03125c-26.242188 0-47.59375 21.351562-47.59375 47.59375h15.03125c0-17.953125 14.609375-32.5625 32.5625-32.5625zm0 0"/><path d="m469.109375 250.46875c-6.664063-25.609375-24.640625-46.695312-48.253906-57.589844-7.019531-36.828125-26.34375-70.441406-54.878907-95.21875-30.496093-26.472656-69.550781-41.050781-109.976562-41.050781-40.003906 0-78.746094 14.308594-109.089844 40.289063l9.773438 11.417968c27.625-23.652344 62.894531-36.675781 99.316406-36.675781 36.804688 0 72.363281 13.269531 100.121094 37.367187 23.765625 20.632813 40.503906 47.984376 48.085937 78.144532-5.894531-1.375-12.015625-2.152344-18.296875-2.269532-17.273437-56.9375-69.878906-96.210937-129.910156-96.210937s-112.636719 39.273437-129.910156 96.210937c-6.28125.117188-12.402344.894532-18.296875 2.273438 1.378906-5.492188 3.050781-10.90625 5.027343-16.199219l-14.078124-5.257812c-3.292969 8.804687-5.828126 17.921875-7.589844 27.175781-23.617188 10.894531-41.597656 31.984375-48.261719 57.597656-24.550781 5.765625-42.890625 28.085938-42.890625 54.371094 0 30.664062 24.945312 55.859375 55.609375 55.859375h152.296875c17.402344 0 31.5625-14.40625 31.5625-31.8125 0-16.054687-12.058594-29.46875-27.59375-31.425781 2.339844-7.964844 3.546875-16.355469 3.546875-24.871094 0-18.742188-5.917969-36.160156-15.972656-50.425781 1.210937-30.152344 26.105469-54.324219 56.550781-54.324219s55.339844 24.148438 56.550781 54.300781c-10.054687 14.265625-15.972656 31.648438-15.972656 50.390625 0 8.515625 1.207031 16.839844 3.546875 24.804688-15.535156 1.960937-27.59375 15.496094-27.59375 31.554687 0 17.402344 14.160156 31.808594 31.5625 31.808594h152.296875c30.664063 0 55.609375-25.195313 55.609375-55.859375 0-26.285156-18.339844-48.605469-42.890625-54.375zm-213.109375-146.765625c52.214844 0 98.089844 33.414063 114.453125 82.246094-5.703125.90625-11.226563 2.363281-16.515625 4.316406-14.375-41.339844-53.492188-69.53125-97.9375-69.53125-44.449219 0-83.5625 28.191406-97.9375 69.53125-5.289062-1.953125-10.8125-3.410156-16.515625-4.316406 16.363281-48.832031 62.238281-82.246094 114.453125-82.246094zm-55.609375 168.832031c0 15.867188-5.023437 30.9375-14.523437 43.585938l12.015624 9.277344c3.113282-4.140626 5.8125-8.78125 8.113282-12.789063h1.910156c9.117188 0 16.53125 7.417969 16.53125 16.535156 0 9.113281-7.414062 16.53125-16.53125 16.53125h-152.296875c-22.375 0-40.578125-18.453125-40.578125-40.832031 0-16.941406 10.441406-31.609375 25.222656-37.675781-.113281 1.816406-.175781 3.582031-.175781 5.425781 0 5.898438.589844 11.765625 1.753906 17.496094l14.726563-3.003906c-.960938-4.75-1.449219-9.648438-1.449219-14.546876 0-40.054687 32.585937-72.644531 72.640625-72.644531s72.640625 32.585938 72.640625 72.640625zm55.609375-119.738281c-33.644531 0-61.933594 23.320313-69.585938 54.644531-4.488281-4.050781-9.398437-7.644531-14.65625-10.710937 11.851563-36.167969 45.691407-60.964844 84.242188-60.964844 38.546875 0 72.390625 24.796875 84.242188 60.964844-5.253907 3.066406-10.164063 6.65625-14.65625 10.707031-7.652344-31.320312-35.941407-54.640625-69.585938-54.640625zm200.390625 192.878906h-152.296875c-9.117188 0-16.53125-7.417969-16.53125-16.53125 0-9.117187 7.414062-16.535156 16.53125-16.535156h1.910156c2.300782 4.007813 5 8.648437 8.113282 12.789063l12.015624-9.152344c-9.5-12.648438-14.523437-27.78125-14.523437-43.652344 0-40.054688 32.585937-72.671875 72.640625-72.671875s72.640625 32.570313 72.640625 72.625c0 4.898437-.488281 9.78125-1.449219 14.53125l14.726563 2.984375c1.164062-5.730469 1.753906-11.628906 1.753906-17.527344 0-1.84375-.0625-3.675781-.175781-5.492187 14.78125 6.066406 25.222656 20.859375 25.222656 37.800781 0 22.378906-18.203125 40.832031-40.578125 40.832031zm0 0"/><path d="m352.1875 305.597656h16.03125v15.027344h-16.03125zm0 0"/><path d="m384.25 305.597656h16.03125v15.027344h-16.03125zm0 0"/><path d="m416.3125 305.597656h16.03125v15.027344h-16.03125zm0 0"/></svg>