<svg height="512pt" viewBox="0 -68 512 512" width="512pt" xmlns="http://www.w3.org/2000/svg"><path d="m183.859375 360.703125c-93.09375 0-168.828125-75.734375-168.828125-168.828125s75.734375-168.828125 168.828125-168.828125c39.148437 0 77.304687 13.703125 107.4375 38.589844l9.570313-11.589844c-32.820313-27.105469-74.371094-42.03125-117.007813-42.03125-101.378906 0-183.859375 82.480469-183.859375 183.859375s82.480469 183.859375 183.859375 183.859375c38.117187 0 74.683594-11.5625 105.742187-33.433594l-8.652343-12.289062c-28.511719 20.078125-62.085938 30.691406-97.089844 30.691406zm0 0"/><path d="m143.78125 273.035156h16.03125v15.027344h-16.03125zm0 0"/><path d="m175.84375 273.035156h16.03125v15.027344h-16.03125zm0 0"/><path d="m207.90625 273.035156h16.03125v15.027344h-16.03125zm0 0"/><path d="m272.53125 192.125c0 17.433594-4.996094 33.816406-14.484375 48.84375h-74.1875v15.03125h81.988281l2.246094-3.375c12.738281-17.703125 19.46875-38.75 19.46875-60.625 0-11.855469-1.988281-23.550781-5.90625-34.632812l-14.167969 5.101562c3.347657 9.472656 5.042969 19.511719 5.042969 29.65625zm0 0"/><path d="m95.1875 192.125c0-48.894531 39.777344-88.796875 88.671875-88.796875 10.144531 0 20.089844 1.632813 29.554687 4.980469l5.007813-14.203125c-11.078125-3.917969-22.707031-5.917969-34.5625-5.917969-57.183594 0-103.703125 46.511719-103.703125 103.695312 0 21.875 6.730469 43.042969 19.46875 60.746094l2.246094 3.371094h17.863281v-15.03125h-10.0625c-9.488281-15.027344-14.484375-31.410156-14.484375-48.84375zm0 0"/><path d="m183.859375 48.09375c-79.28125 0-143.78125 64.5-143.78125 143.78125s64.5 143.78125 143.78125 143.78125 143.78125-64.5 143.78125-143.78125-64.5-143.78125-143.78125-143.78125zm0 272.53125c-70.992187 0-128.75-57.757812-128.75-128.75s57.757813-128.75 128.75-128.75 128.75 57.757812 128.75 128.75-57.757813 128.75-128.75 128.75zm0 0"/><path d="m183.859375 152.296875c-21.824219 0-39.578125 17.753906-39.578125 39.578125 0 1.984375.152344 3.933594.433594 5.84375l-28.160156 28.164062 33.296874 33.296876 28.164063-28.164063c1.910156.285156 3.859375.4375 5.84375.4375 21.824219 0 39.578125-17.753906 39.578125-39.578125 0-1.984375 0-3.9375-.28125-5.84375l47.875-47.722656v-33.605469h-33.605469l-47.722656 47.875c-1.910156-.28125-3.859375-.28125-5.84375-.28125zm-34.007813 85.628906-12.042968-12.042969 12.714844-12.714843c3.097656 4.832031 7.210937 8.945312 12.042968 12.042969zm93.800782-118.191406h12.347656v12.347656l-38.652344 38.5c-3.097656-4.832031-7.289062-9.097656-12.121094-12.195312zm-35.246094 72.140625c0 13.535156-11.011719 24.546875-24.546875 24.546875s-24.546875-11.011719-24.546875-24.546875 11.011719-24.546875 24.546875-24.546875 24.546875 11.011719 24.546875 24.546875zm0 0"/><path d="m352.1875 360.703125c-22.375 0-40.578125-18.203125-40.578125-40.578125 0-17.351562 25.183594-67.902344 40.566406-96.554688 5.695313 10.625 14.230469 26.992188 22 43.625l13.617188-6.359374c-13.339844-28.570313-28.898438-56.332032-29.050781-56.609376l-6.554688-11.667968-6.550781 11.667968c-5.023438 8.941407-49.058594 88.171876-49.058594 115.898438 0 30.664062 24.945313 55.609375 55.609375 55.609375 3.105469 0 6.21875-.257813 9.257812-.769531l-2.484374-14.820313c-2.21875.371094-4.5.558594-6.773438.558594zm0 0"/><path d="m328.140625 321.128906h16.03125v15.027344h-16.03125zm0 0"/><path d="m414.984375 252.566406-6.6875-13.019531-6.683594 13.019531c-.082031.160156-8.199219 15.992188-16.199219 33.789063-16.695312 37.121093-16.695312 46.664062-16.695312 49.800781 0 21.824219 17.757812 39.578125 39.578125 39.578125 21.824219 0 39.578125-17.753906 39.578125-39.578125 0-3.136719 0-12.679688-16.691406-49.800781-8.003906-17.796875-16.121094-33.628907-16.199219-33.789063zm-6.6875 108.136719c-13.535156 0-24.546875-11.011719-24.546875-24.546875 0-9.589844 13.164062-39.839844 24.546875-63.308594 11.382813 23.46875 24.546875 53.71875 24.546875 63.308594 0 13.535156-11.011719 24.546875-24.546875 24.546875zm0 0"/><path d="m488.453125 96.6875h-120.234375c-4.695312 0-8.515625-3.820312-8.515625-8.515625s3.820313-8.515625 8.515625-8.515625h72.140625c12.984375 0 23.546875-10.5625 23.546875-23.546875s-10.5625-23.546875-23.546875-23.546875h-80.15625c-4.695313 0-8.515625-4.070312-8.515625-8.765625s3.820312-8.765625 8.515625-8.765625v-15.03125c-12.984375 0-23.546875 10.8125-23.546875 23.796875s10.5625 23.796875 23.546875 23.796875h40.078125c4.695312 0 8.515625 3.820312 8.515625 8.515625s-3.820313 8.515625-8.515625 8.515625h-72.140625c-12.984375 0-23.546875 10.5625-23.546875 23.546875s10.5625 23.546875 23.546875 23.546875h4.070313c11.050781 20.039062 17.707031 41.953125 19.789062 65.046875l14.96875-1.222656c-2.023438-22.453125-8.027344-43.785157-17.851562-63.824219h99.257812c4.695312 0 8.515625 3.820312 8.515625 8.515625s-3.820313 8.515625-8.515625 8.515625h-40.078125c-12.984375 0-24.046875 10.0625-24.046875 23.046875v8.015625h15.03125v-8.015625c0-4.695313 4.320312-8.015625 9.015625-8.015625h80.15625c12.984375 0 23.546875-10.5625 23.546875-23.546875s-10.5625-23.546875-23.546875-23.546875zm-66.226563-49.09375h18.132813c4.695313 0 8.515625 3.820312 8.515625 8.515625s-3.820312 8.515625-8.515625 8.515625h-18.132813c1.03125-3.003906 1.601563-5.511719 1.601563-8.515625s-.570313-6.511719-1.601563-8.515625zm-75.953124 49.09375h-18.132813c-4.695313 0-8.515625-3.820312-8.515625-8.515625s3.820312-8.515625 8.515625-8.515625h18.132813c-1.027344 2.003906-1.601563 5.511719-1.601563 8.515625s.574219 5.511719 1.601563 8.515625zm142.179687 32.0625h-18.132813c1.03125-3.003906 1.601563-5.511719 1.601563-8.515625s-.570313-6.511719-1.601563-8.515625h18.132813c4.695313 0 8.515625 3.820312 8.515625 8.515625s-3.820312 8.515625-8.515625 8.515625zm0 0"/></svg>