<svg height="512pt" viewBox="0 -48 512 512" width="512pt" xmlns="http://www.w3.org/2000/svg"><path d="m184.5 223h15c0-31.152344 25.347656-56.5 56.5-56.5v-15c-39.425781 0-71.5 32.074219-71.5 71.5zm0 0"/><path d="m365.226562 272c6.742188-16 10.273438-31.984375 10.273438-48.75 0-65.894531-53.605469-119.625-119.5-119.625s-119.5 53.796875-119.5 119.6875c0 16.765625 3.53125 32.6875 10.273438 48.6875h-146.773438v15h512v-15zm-213.726562-48.75c0-57.621094 46.878906-104.625 104.5-104.625s104.5 47.066406 104.5 104.6875c0 16.941406-4.117188 33.6875-11.925781 48.6875h-185.148438c-7.808593-15-11.925781-31.808594-11.925781-48.75zm0 0"/><path d="m32 304h112v15h-112zm0 0"/><path d="m320 336h144v15h-144zm0 0"/><path d="m112 336h80v15h-80zm0 0"/><path d="m216 336h16v15h-16zm0 0"/><path d="m248 336h16v15h-16zm0 0"/><path d="m280 336h16v15h-16zm0 0"/><path d="m296 368h216v15h-216zm0 0"/><path d="m0 368h80v15h-80zm0 0"/><path d="m0 400h512v15h-512zm0 0"/><path d="m263.550781 0h-15.101562l-26.582031 87h68.265624zm-7.550781 26.621094 13.867188 45.378906h-27.734376zm0 0"/><path d="m419.378906 70.300781-10.679687-10.679687-80.316407 42.722656 48.273438 48.273438zm-66.058594 35.765625 41.894532-22.28125-22.28125 41.894532zm0 0"/><path d="m392 257.132812 87-26.582031v-15.101562l-87-26.582031zm15-48 45.378906 13.867188-45.378906 13.867188zm0 0"/><path d="m119 188.867188-87 26.582031v15.101562l87 26.582031zm-15 48-45.378906-13.867188 45.378906-13.867188zm0 0"/><path d="m183.617188 102.34375-80.316407-42.722656-10.679687 10.679687 42.722656 80.316407zm-24.9375 3.722656-19.609376 19.609375-22.285156-41.890625zm0 0"/></svg>