<svg height="512pt" viewBox="-64 0 512 512" width="512pt" xmlns="http://www.w3.org/2000/svg"><path d="m111.921875 248.78125 271.265625-50.863281v-108.554688l-271.265625-50.863281v13.941406l-73.070313 73.074219v-63.363281c14.011719-3.378906 24.273438-15.820313 24.273438-30.621094 0-17.386719-14.019531-31.53125-31.40625-31.53125s-31.71875 14.144531-31.71875 31.53125c0 14.800781 10.824219 27.242188 23.835938 30.621094v449.847656h15.015624v-350.234375l73.070313 73.070313zm208.203125-156.058594 48.046875 9.101563v83.632812l-48.046875 9.101563zm-64.0625-12.011718 49.046875 9.195312v107.46875l-49.046875 9.195312zm-64.0625-12.011719 49.046875 9.195312v131.492188l-49.046875 9.195312zm-65.0625-12.105469 50.046875 9.289062v155.515626l-50.046875 9.289062zm-95.09375-8.546875c-9.109375 0-16.515625-7.410156-16.515625-16.515625s7.410156-16.515625 16.515625-16.515625 16.515625 7.410156 16.515625 16.515625-7.410156 16.515625-16.515625 16.515625zm80.078125 25.632813v62.953124h-61.953125zm-61.953125 77.96875h61.953125v61.953124zm0 0"/><path d="m127.9375 288.78125h16.015625v15.015625h-16.015625zm0 0"/><path d="m288.09375 288.78125h-128.125v15.015625h128.125c17.386719 0 31.53125-14.394531 31.53125-31.78125s-14.144531-31.65625-31.53125-31.65625-31.53125 14.019531-31.53125 31.40625h15.015625c0-9.105469 7.410156-16.515625 16.515625-16.515625s16.515625 7.660156 16.515625 16.765625-7.410156 16.765625-16.515625 16.765625zm0 0"/><path d="m352.15625 320.8125h-176.171875v15.015625h176.171875c9.105469 0 16.515625 7.160156 16.515625 16.265625s-7.410156 16.390625-16.515625 16.390625-16.515625-7.535156-16.515625-16.640625h-15.015625c0 17.386719 14.144531 31.53125 31.53125 31.53125s31.53125-13.894531 31.53125-31.28125-14.144531-31.28125-31.53125-31.28125zm0 0"/><path d="m240.046875 352.84375h-128.125v15.015625h128.125c9.105469 0 16.515625 7.160156 16.515625 16.265625s-7.410156 16.390625-16.515625 16.390625-16.515625-7.535156-16.515625-16.640625h-15.015625c0 17.386719 14.144531 31.53125 31.53125 31.53125s31.53125-13.894531 31.53125-31.28125-14.144531-31.28125-31.53125-31.28125zm0 0"/><path d="m79.890625 352.84375h16.015625v15.015625h-16.015625zm0 0"/></svg>