<svg height="512pt" viewBox="0 -40 512 512" width="512pt" xmlns="http://www.w3.org/2000/svg"><path d="m239.96875 160.3125h16.03125v15.03125h-16.03125zm0 0"/><path d="m272.03125 160.3125h16.03125v15.03125h-16.03125zm0 0"/><path d="m304.09375 160.3125h16.03125v15.03125h-16.03125zm0 0"/><path d="m336.15625 256.5h16.03125v15.03125h-16.03125zm0 0"/><path d="m480.4375 207.90625c-17.402344 0-31.5625 14.160156-31.5625 31.5625h15.03125c0-9.117188 7.417969-16.535156 16.53125-16.535156 9.117188 0 16.53125 7.667968 16.53125 16.785156s-7.414062 16.78125-16.53125 16.78125h-112.21875v15.03125h112.21875c17.402344 0 31.5625-14.410156 31.5625-31.8125s-14.160156-31.8125-31.5625-31.8125zm0 0"/><path d="m432.34375 288.5625h-121.289062c5.359374-7.011719 8.070312-15.78125 8.070312-25.046875v-24.046875h25.046875c21.824219 0 39.078125-18.257812 39.078125-40.078125v-24.046875h9.015625c21.824219 0 39.578125-17.757812 39.578125-39.578125 0-21.824219-17.753906-39.578125-39.578125-39.578125h-9.015625v-64.125h-335.65625v15.03125h32.0625v24.046875c0 21.820313 18.253906 40.078125 40.078125 40.078125h8.015625v24.046875c0 21.820313 18.253906 40.078125 40.078125 40.078125h8.015625v24.046875c0 9.265625 3.710938 18.035156 9.070312 25.046875h-1.054687c-9.039063 0-17.375 2.554688-24.046875 7.675781v.339844h-96.1875c-17.402344 0-31.5625 13.910156-31.5625 31.3125s14.160156 31.4375 31.5625 31.4375 31.5625-14.285156 31.5625-31.6875h-15.03125c0 9.113281-7.417969 16.53125-16.53125 16.53125-9.117188 0-16.53125-7.164063-16.53125-16.28125s7.414062-16.28125 16.53125-16.28125h84.289062c-2.324218 5.007813-3.632812 10.632813-3.632812 16.53125 0 9.269531 3.210938 17.535156 8.566406 24.546875h-1.050781c-21.824219 0-39.578125 17.753906-39.578125 39.578125s17.753906 39.578125 39.578125 39.578125h1.050781c-5.355468 6.011719-9.066406 14.777344-9.066406 24.046875v40.078125h64.125c21.824219 0 39.074219-18.257812 39.074219-40.078125v-25.273437c19.039062-3.519532 32.066406-19.597657 32.066406-38.851563v-24.046875h153.296875c9.117188 0 16.53125 7.164062 16.53125 16.28125s-7.414062 16.40625-16.53125 16.40625c-9.113281 0-16.53125-7.542969-16.53125-16.65625h-15.03125c0 17.402344 14.160156 31.5625 31.5625 31.5625s31.5625-13.910156 31.5625-31.3125-14.160156-31.3125-31.5625-31.3125zm-200.390625 103.203125c0 13.535156-10.511719 25.046875-24.046875 25.046875h-49.097656v-25.046875c0-13.535156 11.515625-24.046875 25.050781-24.046875h48.09375zm72.140625-128.25c0 13.535156-10.511719 25.046875-24.046875 25.046875h-40.078125v15.03125h24.046875v24.046875c0 13.535156-10.511719 25.046875-24.046875 25.046875h-88.171875c-13.535156 0-24.546875-11.011719-24.546875-24.546875s11.011719-24.546875 24.546875-24.546875h56.109375v-15.03125h-24.046875c-13.535156 0-24.546875-11.011719-24.546875-24.546875s11.011719-24.546875 24.546875-24.546875h72.140625v-15.03125h-40.078125c-13.535156 0-25.050781-11.511719-25.050781-25.046875v-24.046875h33.066406v-15.03125h-56.109375c-13.535156 0-25.050781-11.511719-25.050781-25.046875v-24.046875h105.207031v-15.03125h-128.25c-13.535156 0-25.050781-11.511719-25.050781-25.046875v-24.046875h273.535156v49.09375h-56.109375v15.03125h80.15625c13.535156 0 24.546875 11.011719 24.546875 24.546875s-11.011719 24.546875-24.546875 24.546875h-56.109375v15.03125h32.0625v24.046875c0 13.535156-10.511719 25.046875-24.046875 25.046875h-56.109375v15.03125h16.03125zm0 0"/><path d="m111.71875 200.390625h16.03125v15.03125h-16.03125zm0 0"/><path d="m95.6875 200.390625h-64.125c-9.117188 0-16.53125-7.667969-16.53125-16.78125 0-9.117187 7.414062-16.660156 16.53125-16.660156 9.113281 0 16.53125 7.292969 16.53125 16.410156h15.03125c0-17.402344-14.160156-31.5625-31.5625-31.5625s-31.5625 14.410156-31.5625 31.8125 14.160156 31.8125 31.5625 31.8125h64.125zm0 0"/><path d="m47.59375 0h336.65625v15.03125h-336.65625zm0 0"/></svg>