<svg height="512pt" viewBox="0 -88 512 512" width="512pt" xmlns="http://www.w3.org/2000/svg"><path d="m360.5 167.5h15c0-65.894531-53.605469-119.5-119.5-119.5v15c57.621094 0 104.5 46.878906 104.5 104.5zm0 0"/><path d="m216 160.5h16v15h-16zm0 0"/><path d="m248 160.5h16v15h-16zm0 0"/><path d="m280 160.5h16v15h-16zm0 0"/><path d="m256 320c-84.089844 0-152.5-68.410156-152.5-152.5s68.410156-152.5 152.5-152.5c27.25 0 53.988281 7.269531 77.324219 21.027344 22.667969 13.363281 41.609375 32.460937 54.78125 55.234375l12.984375-7.511719c-14.460938-25.003906-35.261719-45.972656-60.148438-60.644531-25.640625-15.117188-55.015625-23.105469-84.941406-23.105469-92.359375 0-167.5 75.140625-167.5 167.5s75.140625 167.5 167.5 167.5 167.5-75.140625 167.5-167.5h-15c0 84.089844-68.410156 152.5-152.5 152.5zm0 0"/><path d="m487.5 151.5h-15c0 13.511719-10.992188 24.5-24.5 24.5v15c13.507812 0 24.5 10.988281 24.5 24.5h15c0-13.511719 10.992188-24.5 24.5-24.5v-15c-13.507812 0-24.5-10.988281-24.5-24.5zm-7.5 40.882812c-2.472656-3.410156-5.472656-6.410156-8.882812-8.882812 3.410156-2.472656 6.410156-5.472656 8.882812-8.882812 2.472656 3.410156 5.472656 6.410156 8.882812 8.882812-3.410156 2.472656-6.410156 5.472656-8.882812 8.882812zm0 0"/><path d="m448 112c-13.507812 0-24.5-10.988281-24.5-24.5h-15c0 13.511719-10.992188 24.5-24.5 24.5v15c13.507812 0 24.5 10.988281 24.5 24.5h15c0-13.511719 10.992188-24.5 24.5-24.5zm-32 16.382812c-2.472656-3.410156-5.472656-6.410156-8.882812-8.882812 3.410156-2.472656 6.410156-5.472656 8.882812-8.882812 2.472656 3.410156 5.472656 6.410156 8.882812 8.882812-3.410156 2.472656-6.410156 5.472656-8.882812 8.882812zm0 0"/><path d="m55.5 183.5h-15c0 13.511719-10.992188 24.5-24.5 24.5v15c13.507812 0 24.5 10.988281 24.5 24.5h15c0-13.511719 10.992188-24.5 24.5-24.5v-15c-13.507812 0-24.5-10.988281-24.5-24.5zm-7.5 40.882812c-2.472656-3.410156-5.472656-6.410156-8.882812-8.882812 3.410156-2.472656 6.410156-5.472656 8.882812-8.882812 2.472656 3.410156 5.472656 6.410156 8.882812 8.882812-3.410156 2.472656-6.410156 5.472656-8.882812 8.882812zm0 0"/><path d="m24.5 135.5h15c0-13.511719 10.992188-24.5 24.5-24.5v-15c-13.507812 0-24.5-10.988281-24.5-24.5h-15c0 13.511719-10.992188 24.5-24.5 24.5v15c13.507812 0 24.5 10.988281 24.5 24.5zm7.5-40.882812c2.472656 3.410156 5.472656 6.410156 8.882812 8.882812-3.410156 2.472656-6.410156 5.472656-8.882812 8.882812-2.472656-3.410156-5.472656-6.410156-8.882812-8.882812 3.410156-2.472656 6.410156-5.472656 8.882812-8.882812zm0 0"/><path d="m223.5 119.5c0-12.957031-10.542969-23.5-23.5-23.5s-23.5 10.542969-23.5 23.5 10.542969 23.5 23.5 23.5 23.5-10.542969 23.5-23.5zm-32 0c0-4.6875 3.8125-8.5 8.5-8.5s8.5 3.8125 8.5 8.5-3.8125 8.5-8.5 8.5-8.5-3.8125-8.5-8.5zm0 0"/><path d="m216 255c12.957031 0 23.5-10.542969 23.5-23.5s-10.542969-23.5-23.5-23.5-23.5 10.542969-23.5 23.5 10.542969 23.5 23.5 23.5zm0-32c4.6875 0 8.5 3.8125 8.5 8.5s-3.8125 8.5-8.5 8.5-8.5-3.8125-8.5-8.5 3.8125-8.5 8.5-8.5zm0 0"/><path d="m152 144c-17.367188 0-31.5 14.132812-31.5 31.5s14.132812 31.5 31.5 31.5 31.5-14.132812 31.5-31.5-14.132812-31.5-31.5-31.5zm0 48c-9.097656 0-16.5-7.402344-16.5-16.5s7.402344-16.5 16.5-16.5 16.5 7.402344 16.5 16.5-7.402344 16.5-16.5 16.5zm0 0"/></svg>