<svg height="512pt" viewBox="-56 0 512 512" width="512pt" xmlns="http://www.w3.org/2000/svg"><path d="m159.660156 217.210938h16.015625v15.015624h-16.015625zm0 0"/><path d="m191.691406 217.210938h16.015625v15.015624h-16.015625zm0 0"/><path d="m223.722656 217.210938h16.015625v15.015624h-16.015625zm0 0"/><path d="m338.296875 178.15625c-35.632813-34.472656-81.539063-54.191406-131.589844-56.011719v-18.042969h-15.015625v18.042969c-49.046875 1.820313-95.453125 21.539063-131.085937 56.015625-37.34375 36.132813-58.78125 84.578125-60.60156275 136.410156-.14453125 4.222657 2.49609375 7.976563 6.48437475 9.339844 3.992188 1.367188 8.367188-.019531 10.839844-3.445312 11.03125-15.292969 24.871094-23.554688 38.890625-23.292969 14.453125.277344 28.472656 9.539063 39.460938 26.078125 1.769531 2.65625 4.734374 4.242188 7.925781 4.242188 3.191406 0 6.152343-1.585938 7.921875-4.246094 11.175781-16.820313 25.425781-26.082032 40.125-26.082032 14.703125 0 28.703125 9.265626 39.878906 26.085938.125.191406.160156.363281.160156.542969v156.675781c0 9.109375-7.15625 16.515625-16.265625 16.515625-9.105469 0-16.265625-7.40625-16.265625-16.515625h-15.011718c0 17.386719 13.894531 31.53125 31.277343 31.53125 17.386719 0 31.28125-14.144531 31.28125-31.53125v-156.675781c1-.179688.535157-.351563.660157-.542969 11.175781-16.824219 25.554687-26.085938 40.253906-26.085938 14.699218-.003906 29.015625 9.261719 40.191406 26.085938 1.769531 2.65625 4.757812 4.242188 7.949219 4.242188 3.191406 0 6.167969-1.585938 7.9375-4.246094 10.988281-16.539063 24.925781-25.796875 39.378906-26.078125 14.003906-.230469 27.789063 8.003906 38.800781 23.296875 3.003906 3.425781 6.902344 4.8125 10.890625 3.445312 3.988281-1.367187 6.484375-5.121094 6.335938-9.339844-1.816407-51.832031-23.464844-100.277343-60.808594-136.414062zm-241.699219 122.527344c-11.800781-11.769532-25.613281-18.246094-40.074218-18.527344-14.332032-.261719-28.175782 5.554688-40.105469 16.675781 5.136719-41.738281 24.28125-80.277343 54.878906-109.882812 25.429687-24.601563 56.785156-41.074219 90.738281-48.09375-13.910156 9.503906-26.476562 24.375-36.914062 44.046875-16.335938 30.789062-26.265625 71.351562-28.523438 115.78125zm150.898438-18.535156c-14.617188 0-28.777344 6.300781-40.789063 18.027343v-51.933593h-15.015625v51.933593c-10.992187-11.710937-25.628906-18.007812-40.226562-18.023437-14.359375.015625-28.027344 6.105468-39.835938 17.453125 2.3125-41.523438 11.363282-79.191407 26.472656-107.667969 14.714844-27.734375 33.570313-44.363281 53.589844-47.671875v55.929687h15.015625v-55.929687c21.019531 3.308594 39.34375 19.9375 54.058594 47.671875 15.109375 28.476562 24.378906 66.144531 26.695313 107.667969-11.828126-11.363281-25.582032-17.457031-39.964844-17.457031zm95.382812.007812c-14.464844.28125-28.273437 6.757812-40.074218 18.527344-2.257813-44.429688-12.1875-84.988282-28.523438-115.78125-10.4375-19.671875-23.003906-34.542969-36.914062-44.046875 33.949218 7.019531 65.308593 23.488281 90.738281 48.09375 30.59375 29.605469 49.742187 68.148437 54.878906 109.882812-11.929687-11.121093-25.757813-16.945312-40.105469-16.675781zm0 0"/><path d="m151.40625 282.148438c.019531 0 .039062.003906.058594.003906.023437 0 .042968-.003906.0625-.003906zm0 0"/><path d="m31.535156 0h15.015625v184.179688h-15.015625zm0 0"/><path d="m71.574219 0h15.015625v136.132812h-15.015625zm0 0"/><path d="m111.613281 96.09375h15.015625v16.015625h-15.015625zm0 0"/><path d="m111.613281 0h15.015625v80.078125h-15.015625zm0 0"/><path d="m151.652344 0h15.015625v104.101562h-15.015625zm0 0"/><path d="m191.691406 0h15.015625v88.085938h-15.015625zm0 0"/><path d="m231.730469 0h15.015625v104.101562h-15.015625zm0 0"/><path d="m271.769531 0h15.015625v112.109375h-15.015625zm0 0"/><path d="m311.808594 120.117188h15.015625v16.015624h-15.015625zm0 0"/><path d="m311.808594 0h15.015625v104.101562h-15.015625zm0 0"/><path d="m351.847656 0h15.015625v184.179688h-15.015625zm0 0"/></svg>