<svg height="512pt" viewBox="0 -27 512 511" width="512pt" xmlns="http://www.w3.org/2000/svg"><path d="m328.140625 48.308594c-48.34375 0-87.671875 39.332031-87.671875 87.671875h15.03125c0-40.054688 32.585938-72.640625 72.640625-72.640625zm0 0"/><path d="m280.046875 177.0625h16.03125v15.027344h-16.03125zm0 0"/><path d="m312.109375 177.0625h16.03125v15.027344h-16.03125zm0 0"/><path d="m344.171875 177.0625h16.03125v15.027344h-16.03125zm0 0"/><path d="m239.96875 257.21875h-40.078125c-31.214844 0-56.609375-25.644531-56.609375-56.863281 0-28.746094 21.546875-52.667969 49.335938-56.25.511718 8.777343 1.859374 17.410156 4.035156 25.875l14.554687-3.777344c-2.523437-9.808594-3.800781-19.980469-3.800781-30.207031 0-66.574219 54.160156-120.742188 120.734375-120.742188s120.734375 54.15625 120.734375 120.730469c0 27.757813-9.152344 53.847656-26.476562 75.457031l11.726562 9.398438c10.789062-13.457032 18.851562-28.867188 23.851562-45.238282 21.640626.835938 38.992188 18.945313 38.992188 40.789063 0 22.375-18.203125 40.828125-40.578125 40.828125h-56.109375v15.03125h56.109375c30.664063 0 55.609375-25.199219 55.609375-55.859375 0-28.90625-22.171875-52.847656-50.398438-55.480469 1.519532-8.148437 2.304688-16.515625 2.304688-24.863281 0-74.863281-60.902344-135.546875-135.765625-135.546875-72.339844 0-131.640625 56.328125-135.554687 128.46875h-128.960938c-17.402344 0-31.5625 13.910156-31.5625 31.3125s14.160156 31.4375 31.5625 31.4375 31.5625-14.289062 31.5625-31.691406h-15.03125c0 9.117187-7.417969 16.535156-16.53125 16.535156-9.117188 0-16.53125-7.167969-16.53125-16.285156 0-9.113282 7.414062-16.28125 16.53125-16.28125h92.441406c-16.90625 13.027344-27.816406 33.609375-27.816406 56.613281 0 23 10.910156 42.582031 27.816406 56.609375h-124.503906c-9.117188 0-16.53125-7.667969-16.53125-16.78125 0-9.117188 7.414062-16.660156 16.53125-16.660156s16.53125 7.292968 16.53125 16.40625h15.03125c0-17.402344-14.160156-31.558594-31.5625-31.558594s-31.5625 14.40625-31.5625 31.8125c0 17.402344 14.160156 31.808594 31.5625 31.808594h208.40625zm0 0"/><path d="m159.8125 96.90625h16.03125v15.027344h-16.03125zm0 0"/><path d="m31.5625 111.933594h112.21875v-15.027344h-112.21875c-9.117188 0-16.53125-7.667969-16.53125-16.785156 0-9.113282 7.414062-16.65625 16.53125-16.65625 9.113281 0 16.53125 7.292968 16.53125 16.40625h15.03125c0-17.402344-14.160156-31.5625-31.5625-31.5625s-31.5625 14.410156-31.5625 31.8125c0 17.40625 14.160156 31.8125 31.5625 31.8125zm0 0"/><path d="m79.65625 336.875c-9.117188 0-16.53125-7.167969-16.53125-16.28125 0-9.117188 7.414062-16.285156 16.53125-16.285156h128.25v-15.027344h-128.25c-17.402344 0-31.5625 13.90625-31.5625 31.3125 0 17.402344 14.160156 31.433594 31.5625 31.433594s31.5625-14.28125 31.5625-31.6875h-15.03125c0 9.117187-7.417969 16.535156-16.53125 16.535156zm0 0"/><path d="m223.9375 289.28125h16.03125v15.027344h-16.03125zm0 0"/><path d="m362.90625 293.59375 10.625-10.378906-11.214844-10.964844h21.933594v-15.03125h-21.933594l11.214844-11.46875-10.625-10.753906-18.734375 18.671875-13.417969-13.449219 18.734375-18.75-10.878906-10.636719-11.46875 11.210938v-21.9375h-15.03125v21.9375l-10.96875-11.21875-10.5 10.628906 18.792969 18.734375-13.386719 13.417969-18.714844-18.734375-10.621093 10.878906 11.226562 11.46875h-21.9375v15.027344h21.9375l-11.21875 10.96875 10.625 10.503906 18.734375-18.796875 13.421875 13.386719-18.734375 18.71875 10.375 10.621094 10.96875-11.226563v21.933594h15.03125v-21.933594l11.464844 11.21875 10.753906-10.628906-18.667969-18.734375 13.449219-13.417969zm-42.78125-15.941406-13.421875-13.421875 13.421875-13.417969 13.421875 13.417969zm0 0"/><path d="m261.3125 374-10.625-10.753906-18.734375 18.671875-13.417969-13.449219 18.730469-18.75-10.875-10.636719-11.472656 11.210938v-21.9375h-15.027344v21.9375l-10.96875-11.21875-10.5 10.628906 18.792969 18.734375-13.386719 13.417969-18.714844-18.734375-10.621093 10.878906 11.222656 11.46875h-21.933594v15.03125h21.933594l-11.214844 10.964844 10.625 10.503906 18.734375-18.796875 13.421875 13.386719-18.734375 18.71875 10.375 10.621094 10.96875-11.226563v21.9375h15.027344v-21.9375l11.46875 11.21875 10.753906-10.628906-18.671875-18.734375 13.453125-13.417969 18.746094 18.734375 10.636719-10.378906-11.210938-10.964844h21.9375v-15.03125h-21.9375zm-53.40625 31.902344-13.421875-13.417969 13.421875-13.421875 13.421875 13.421875zm0 0"/><path d="m485.753906 374-10.628906-10.753906-18.734375 18.671875-13.417969-13.449219 18.734375-18.75-10.878906-10.636719-11.46875 11.210938v-21.9375h-15.03125v21.9375l-10.964844-11.21875-10.503906 10.628906 18.796875 18.734375-13.390625 13.417969-18.714844-18.734375-10.621093 10.878906 11.226562 11.46875h-21.9375v15.03125h21.9375l-11.21875 10.964844 10.628906 10.503906 18.730469-18.796875 13.421875 13.386719-18.734375 18.71875 10.378906 10.621094 10.964844-11.226563v21.9375h15.03125v-21.9375l11.46875 11.21875 10.75-10.628906-18.667969-18.734375 13.449219-13.417969 18.75 18.734375 10.632813-10.378906-11.210938-10.964844h21.9375v-15.03125h-21.933594zm-53.410156 31.902344-13.417969-13.417969 13.417969-13.421875 13.421875 13.421875zm0 0"/></svg>