<svg height="512pt" viewBox="-56 0 511 512" width="512pt" xmlns="http://www.w3.org/2000/svg"><path d="m18.71875 83.027344 10.617188 10.492187 18.714843-18.777343 13.40625 13.375-18.714843 18.699218 10.367187 10.609375 10.957031-11.214843v21.914062h15.015625v-21.914062l11.457031 11.207031 10.742188-10.617188-18.652344-18.714843 13.4375-13.40625 18.730469 18.714843 10.625-10.367187-11.199219-10.957032h21.914063v-15.015624h-21.914063l11.207032-11.457032-10.617188-10.742187-18.714844 18.652343-13.40625-13.4375 18.714844-18.730468-10.867188-10.625-11.457031 11.199218v-21.914062h-15.015625v21.914062l-10.953125-11.207031-10.496093 10.617188 18.777343 18.714843-13.375 13.40625-18.699219-18.714843-10.609374 10.867187 11.214843 11.457032h-21.914062v15.015624h21.917969zm53.355469-32.371094 13.40625 13.40625-13.40625 13.40625-13.40625-13.40625zm0 0"/><path d="m274.96875 83.027344 10.617188 10.492187 18.714843-18.777343 13.40625 13.375-18.714843 18.699218 10.367187 10.609375 10.957031-11.214843v21.914062h15.015625v-21.914062l11.457031 11.207031 10.742188-10.617188-18.652344-18.714843 13.4375-13.40625 18.730469 18.714843 10.625-10.367187-11.199219-10.957032h21.917969v-15.015624h-21.917969l11.207032-11.457032-10.617188-10.742187-18.714844 18.652343-13.40625-13.4375 18.714844-18.730468-10.867188-10.625-11.457031 11.199218v-21.914062h-15.015625v21.914062l-10.953125-11.207031-10.492187 10.617188 18.773437 18.714843-13.371093 13.40625-18.699219-18.714843-10.613281 10.867187 11.214843 11.457032h-21.914062v15.015624h21.914062zm53.355469-32.371094 13.40625 13.40625-13.40625 13.40625-13.40625-13.40625zm0 0"/><path d="m160.160156 217.210938h16.015625v15.015624h-16.015625zm0 0"/><path d="m192.191406 217.210938h16.015625v15.015624h-16.015625zm0 0"/><path d="m224.222656 217.210938h16.015625v15.015624h-16.015625zm0 0"/><path d="m338.796875 178.15625c-35.632813-34.472656-81.539063-54.191406-131.589844-56.011719v-18.042969h-15.015625v18.042969c-49.046875 1.820313-95.453125 21.539063-131.085937 56.015625-37.34375 36.128906-58.785157 84.574219-60.597657 136.410156-.152343 4.222657 2.492188 7.976563 6.480469 9.339844 3.996094 1.367188 8.371094-.019531 10.839844-3.445312 11.03125-15.292969 24.816406-23.570313 38.890625-23.292969 14.453125.277344 28.472656 9.539063 39.460938 26.078125 1.769531 2.65625 4.734374 4.242188 7.925781 4.242188 3.191406 0 6.152343-1.585938 7.921875-4.246094 11.175781-16.820313 25.425781-26.082032 40.128906-26.082032 14.699219 0 28.699219 9.265626 39.875 26.085938.128906.191406.164062.363281.164062.542969v156.675781c0 9.109375-7.160156 16.515625-16.265624 16.515625-9.109376 0-16.265626-7.40625-16.265626-16.515625h-15.015624c0 17.386719 13.894531 31.53125 31.28125 31.53125 17.382812 0 31.277343-14.144531 31.277343-31.53125v-156.675781c1.003907-.179688.535157-.351563.664063-.542969 11.175781-16.824219 25.550781-26.085938 40.25-26.085938 14.703125-.003906 29.015625 9.261719 40.191406 26.085938 1.769531 2.65625 4.761719 4.242188 7.953125 4.242188 3.1875 0 6.164063-1.585938 7.933594-4.246094 10.988281-16.539063 24.925781-25.796875 39.378906-26.078125 14.046875-.230469 27.792969 8.003906 38.800781 23.296875 3.003906 3.425781 6.902344 4.8125 10.894532 3.445312 3.984374-1.367187 6.480468-5.121094 6.332031-9.339844-1.816407-51.832031-23.464844-100.277343-60.808594-136.414062zm-241.699219 122.527344c-11.800781-11.769532-25.613281-18.246094-40.074218-18.527344-.328126-.003906-.648438-.007812-.976563-.007812-13.984375 0-27.46875 5.816406-39.128906 16.683593 5.136719-41.738281 24.277343-80.277343 54.878906-109.882812 25.425781-24.601563 56.785156-41.074219 90.734375-48.09375-13.910156 9.503906-26.476562 24.375-36.910156 44.046875-16.335938 30.789062-26.265625 71.351562-28.523438 115.78125zm150.898438-18.535156c-14.617188 0-28.777344 6.300781-40.789063 18.027343v-51.933593h-15.015625v51.933593c-10.992187-11.710937-25.628906-18.007812-40.222656-18.027343-14.359375.019531-28.03125 6.109374-39.839844 17.457031 2.3125-41.523438 11.363282-79.191407 26.472656-107.667969 14.714844-27.734375 33.570313-44.363281 53.589844-47.671875v55.929687h15.015625v-55.929687c21.019531 3.308594 39.34375 19.9375 54.0625 47.671875 15.105469 28.476562 24.375 66.144531 26.691407 107.667969-11.828126-11.363281-25.582032-17.457031-39.964844-17.457031zm95.382812.007812c-14.464844.28125-28.273437 6.757812-40.074218 18.527344-2.257813-44.429688-12.1875-84.988282-28.523438-115.78125-10.4375-19.671875-23.003906-34.542969-36.914062-44.046875 33.953124 7.019531 65.308593 23.488281 90.738281 48.09375 30.597656 29.605469 49.742187 68.148437 54.878906 109.882812-11.933594-11.121093-25.757813-16.945312-40.105469-16.675781zm0 0"/><path d="m151.90625 282.148438c.019531 0 .039062.003906.0625.003906.019531 0 .039062-.003906.0625-.003906zm0 0"/></svg>