<svg height="512pt" viewBox="-56 0 511 512" width="512pt" xmlns="http://www.w3.org/2000/svg"><path d="m275.214844 333.128906 13.566406 13.816406v26.8125l-26.972656-27.222656-10.742188 10.617188 5.683594 5.808594v134.023437h-65.0625v-104.101563h-79.078125v104.101563h-65.0625v-134.023437l104.851563-104.601563 50.871093 50.746094 10.429688-10.617188-54.042969-53.855469v-26.8125l27.472656 27.222657 10.738282-10.617188-45.53125-45.347656-64.75 64.5625v-28.921875h-63.0625v91.984375l-24.023438 24.023437v69.28125l32.03125-32.03125v134.023438h239.234375v-134.023438l32.03125 32.03125v-69.28125l-18.089844-18.214843zm-235.675782-93.394531h33.03125v28.921875l-33.03125 33.03125zm-24.023437 134.023437v-26.8125l129.125-129.125v26.8125zm161.15625 123.226563h-49.046875v-89.085937h49.046875zm0 0"/><path d="m240.734375 120.617188h16.015625v15.015624h-16.015625zm0 0"/><path d="m272.765625 120.617188h16.015625v15.015624h-16.015625zm0 0"/><path d="m304.796875 120.617188h16.015625v15.015624h-16.015625zm0 0"/><path d="m288.78125 40.039062c-26.214844 0-47.546875 21.328126-47.546875 47.546876h15.015625c0-17.9375 14.59375-32.53125 32.53125-32.53125zm0 0"/><path d="m372.824219 112.367188c2.335937-7.957032 3.542969-16.273438 3.542969-24.78125 0-48.296876-39.289063-87.585938-87.585938-87.585938-40.683594 0-74.976562 27.882812-84.777344 65.546875-24.527344 5.761719-42.847656 28.058594-42.847656 54.320313 0 30.632812 24.921875 55.804687 55.554688 55.804687h16.015624v-15.015625h-16.015624c-22.355469 0-40.539063-18.433594-40.539063-40.789062 0-16.925782 10.433594-31.582032 25.203125-37.640626-.113281 1.8125-.179688 3.578126-.179688 5.421876 0 5.890624.589844 11.75 1.753907 17.476562l14.710937-3c-.960937-4.746094-1.449218-9.640625-1.449218-14.53125 0-40.015625 32.554687-72.574219 72.570312-72.574219s72.570312 32.550781 72.570312 72.566407c0 15.855468-5.015624 30.910156-14.507812 43.546874l12.003906 9.265626c3.105469-4.136719 5.804688-8.769532 8.105469-12.773438h1.90625c9.105469 0 16.515625 7.410156 16.515625 16.515625s-7.410156 16.515625-16.515625 16.515625h-32.03125v15.015625h32.03125c17.386719 0 31.53125-14.394531 31.53125-31.78125 0-16.042969-12.046875-29.566406-27.566406-31.523437zm0 0"/><path d="m324.953125 160.65625h-72.84375l-47.546875 95.09375h56.054688l-40.039063 80.078125h23.429687l118.042969-127.125h-61.121093zm2.667969 63.0625-74.097656 79.796875 31.390624-62.78125h-56.054687l32.53125-65.0625h39.265625l-24.023438 48.046875zm0 0"/><path d="m121.117188 335.828125c0 17.386719 14.144531 31.53125 31.53125 31.53125 17.386718 0 31.53125-14.144531 31.53125-31.53125s-14.144532-31.53125-31.53125-31.53125c-17.386719 0-31.53125 14.144531-31.53125 31.53125zm48.046874 0c0 9.105469-7.410156 16.515625-16.515624 16.515625-9.105469 0-16.515626-7.410156-16.515626-16.515625s7.410157-16.515625 16.515626-16.515625c9.105468 0 16.515624 7.410156 16.515624 16.515625zm0 0"/></svg>