<svg height="512pt" viewBox="-56 0 511 512" width="512pt" xmlns="http://www.w3.org/2000/svg"><path d="m240.734375 120.617188h16.015625v15.015624h-16.015625zm0 0"/><path d="m272.765625 120.617188h16.015625v15.015624h-16.015625zm0 0"/><path d="m304.796875 120.617188h16.015625v15.015624h-16.015625zm0 0"/><path d="m241.234375 87.585938h15.015625c0-17.9375 14.59375-32.53125 32.53125-32.53125v-15.015626c-26.214844 0-47.546875 21.328126-47.546875 47.546876zm0 0"/><path d="m372.824219 112.367188c2.335937-7.957032 3.542969-16.273438 3.542969-24.78125 0-48.296876-39.289063-87.585938-87.585938-87.585938-40.683594 0-74.976562 27.882812-84.777344 65.546875-24.527344 5.761719-42.847656 28.058594-42.847656 54.320313 0 30.632812 24.921875 55.804687 55.554688 55.804687h152.148437c17.386719 0 31.53125-14.394531 31.53125-31.78125 0-16.042969-12.046875-29.566406-27.566406-31.523437zm-3.964844 48.289062h-152.148437c-22.355469 0-40.539063-18.433594-40.539063-40.789062 0-16.925782 10.433594-31.582032 25.203125-37.640626-.113281 1.8125-.179688 3.578126-.179688 5.421876 0 5.890624.589844 11.75 1.753907 17.476562l14.710937-3c-.960937-4.746094-1.449218-9.640625-1.449218-14.53125 0-40.015625 32.554687-72.574219 72.570312-72.574219s72.570312 32.550781 72.570312 72.566407c0 15.855468-5.015624 30.910156-14.507812 43.546874l12.003906 9.265626c3.105469-4.136719 5.804688-8.769532 8.105469-12.773438h1.90625c9.105469 0 16.515625 7.410156 16.515625 16.515625s-7.410156 16.515625-16.515625 16.515625zm0 0"/><path d="m121.117188 335.828125c0 17.386719 14.144531 31.53125 31.53125 31.53125 17.386718 0 31.53125-14.144531 31.53125-31.53125s-14.144532-31.53125-31.53125-31.53125c-17.386719 0-31.53125 14.144531-31.53125 31.53125zm48.046874 0c0 9.105469-7.410156 16.515625-16.515624 16.515625-9.105469 0-16.515626-7.410156-16.515626-16.515625s7.410157-16.515625 16.515626-16.515625c9.105468 0 16.515624 7.410156 16.515624 16.515625zm0 0"/><path d="m344.835938 191.265625-6.679688 13.007813c-3.949219 7.695312-16.84375 33.578124-16.84375 43.46875 0 12.96875 10.554688 23.523437 23.523438 23.523437 12.972656 0 23.523437-10.554687 23.523437-23.523437 0-9.890626-12.894531-35.769532-16.84375-43.46875zm0 64.984375c-4.691407 0-8.507813-3.816406-8.507813-8.507812.015625-2.933594 3.773437-12.5 8.507813-22.835938 4.734374 10.335938 8.492187 19.902344 8.507812 22.835938 0 4.691406-3.816406 8.507812-8.507812 8.507812zm0 0"/><path d="m240.234375 247.742188c0-9.890626-12.894531-35.769532-16.84375-43.46875l-6.679687-13.007813-6.679688 13.007813c-3.949219 7.695312-16.84375 33.578124-16.84375 43.46875 0 12.96875 10.554688 23.523437 23.523438 23.523437 12.972656 0 23.523437-10.554687 23.523437-23.523437zm-32.03125 0c.015625-2.933594 3.773437-12.5 8.507813-22.835938 4.734374 10.335938 8.492187 19.902344 8.507812 22.835938 0 4.691406-3.816406 8.507812-8.507812 8.507812-4.691407 0-8.507813-3.816406-8.507813-8.507812zm0 0"/><path d="m304.296875 247.742188c0-9.890626-12.894531-35.769532-16.84375-43.46875l-6.679687-13.007813-6.679688 13.007813c-3.949219 7.695312-16.84375 33.578124-16.84375 43.46875 0 12.96875 10.554688 23.523437 23.523438 23.523437 12.972656 0 23.523437-10.554687 23.523437-23.523437zm-32.03125 0c.015625-2.933594 3.773437-12.5 8.507813-22.835938 4.734374 10.335938 8.492187 19.902344 8.507812 22.835938 0 4.691406-3.816406 8.507812-8.507812 8.507812-4.691407 0-8.507813-3.816406-8.507813-8.507812zm0 0"/><path d="m312.804688 287.359375-6.679688 13.007813c-2.59375 5.054687-9.046875 17.957031-13.171875 29.015624l-6.871094-6.871093-10.867187 10.617187 13.566406 13.816406v26.8125l-19.222656-19.472656c1.570312-3.148437 2.582031-6.699218 2.582031-10.449218 0-9.890626-12.832031-35.769532-16.78125-43.46875l-6.648437-13.007813-6.664063 13.007813c-3.949219 7.699218-16.835937 33.578124-16.835937 43.46875 0 12.96875 10.304687 23.523437 23.277343 23.523437 3 0 6.261719-.570313 8.261719-1.597656v131.222656h-65.0625v-104.101563h-79.078125v104.101563h-65.0625v-134.023437l104.851563-104.601563 58.878906 58.753906 10.429687-10.617187-62.050781-61.863282v-26.8125l19.464844 19.214844 10.742187-10.617187-37.527343-37.339844-64.75 64.5625v-28.921875h-63.0625v91.984375l-24.023438 24.023437v69.28125l32.03125-32.03125v134.023438h239.234375v-134.023438l32.03125 32.03125v-44.25c3.003906 1.03125 5.757813 1.601563 8.757813 1.601563 12.972656 0 23.648437-10.554687 23.648437-23.523437 0-9.894532-12.832031-35.773438-16.78125-43.46875zm-273.265626-47.625h33.03125v28.921875l-33.03125 33.03125zm-24.023437 134.023437v-26.8125l129.125-129.125v26.8125zm161.15625 123.226563h-49.046875v-89.085937h49.046875zm72.070313-144.640625c-4.691407 0-8.507813-3.816406-8.507813-8.507812.015625-2.933594 3.773437-12.5 8.507813-22.835938 4.734374 10.335938 8.492187 19.902344 8.507812 22.835938 0 4.691406-3.816406 8.507812-8.507812 8.507812zm64.0625 0c-4.691407 0-8.507813-3.816406-8.507813-8.507812.015625-2.933594 3.773437-12.5 8.507813-22.835938 4.734374 10.335938 8.492187 19.902344 8.507812 22.835938 0 4.691406-3.816406 8.507812-8.507812 8.507812zm0 0"/></svg>