<svg height="511pt" viewBox="-56 1 511 511.999" width="511pt" xmlns="http://www.w3.org/2000/svg"><path d="m323.53125 285.066406 10.617188-10.367187-11.207032-10.957031h21.914063v-15.015626h-21.914063l11.207032-11.457031-10.617188-10.746093-18.71875 18.65625-13.40625-13.441407 18.71875-18.730469-10.871094-10.625-11.457031 11.199219v-21.917969h-15.015625v21.917969l-10.957031-11.207031-10.492188 10.617188 18.777344 18.714843-13.375 13.40625-18.699219-18.714843-10.609375 10.867187 11.214844 11.460937h-21.917969v15.015626h21.917969l-11.207031 10.957031 10.617187 10.492187 18.714844-18.777344 13.40625 13.375-18.714844 18.699219 10.367188 10.609375 10.957031-11.214844v21.914063h15.015625v-21.914063l11.457031 11.207032 10.746094-10.617188-18.65625-18.714844 13.4375-13.410156zm-42.742188-15.925781-13.40625-13.410156 13.40625-13.40625 13.40625 13.40625zm0 0"/><path d="m288.796875 373.75-34.980469-35.234375-10.746094 10.617187 13.695313 13.816407v134.035156h-65.066406v-104.109375h-79.082031v104.109375h-65.070313v-134.035156l104.859375-104.605469 42.867188 42.738281 10.429687-10.617187-46.039063-45.851563v-26.8125l35.484376 35.234375 10.742187-10.621094-53.546875-53.355468-64.753906 64.566406v-28.925781h-63.066406v91.988281l-24.023438 24.027344v69.285156l32.03125-32.035156v134.035156h239.25v-134.03125l32.03125 32.03125v-66.175781h-15.015625zm-249.257813-134.035156h33.035157v28.925781l-33.035157 33.035156zm-24.023437 134.035156v-26.816406l129.132813-129.132813v26.8125zm161.164063 123.234375h-49.050782v-89.09375h49.050782zm0 0"/><path d="m121.125 335.816406c0 17.386719 14.144531 31.53125 31.53125 31.53125s31.53125-14.144531 31.53125-31.53125c0-17.386718-14.144531-31.53125-31.53125-31.53125s-31.53125 14.144532-31.53125 31.53125zm48.046875 0c0 9.105469-7.40625 16.515625-16.515625 16.515625-9.105469 0-16.515625-7.410156-16.515625-16.515625 0-9.109375 7.410156-16.515625 16.515625-16.515625 9.109375 0 16.515625 7.40625 16.515625 16.515625zm0 0"/><path d="m240.746094 120.59375h16.019531v15.015625h-16.019531zm0 0"/><path d="m272.78125 120.59375h16.015625v15.015625h-16.015625zm0 0"/><path d="m304.8125 120.59375h16.019531v15.015625h-16.019531zm0 0"/><path d="m288.796875 55.023438v-15.015626c-26.21875 0-47.546875 21.332032-47.546875 47.550782h15.015625c0-17.9375 14.59375-32.535156 32.53125-32.535156zm0 0"/><path d="m216.722656 175.648438h152.15625c17.390625 0 31.535156-14.394532 31.535156-31.78125 0-16.042969-12.046874-29.445313-27.570312-31.398438 2.339844-7.960938 3.542969-16.339844 3.542969-24.847656 0-48.296875-39.292969-87.621094-87.589844-87.621094-40.6875 0-74.980469 27.871094-84.78125 65.535156-24.527344 5.761719-42.851563 28.054688-42.851563 54.316406 0 30.632813 24.925782 55.796876 55.558594 55.796876zm-15.339844-93.578126c-.113281 1.816407-.175781 3.644532-.175781 5.488282 0 5.890625.589844 11.785156 1.753907 17.507812l14.710937-2.984375c-.960937-4.746093-1.449219-9.632812-1.449219-14.523437 0-40.019532 32.554688-72.574219 72.574219-72.574219s72.574219 32.554687 72.574219 72.574219c0 15.855468-5.015625 30.914062-14.507813 43.546875l12.003907 9.269531c3.109374-4.136719 5.804687-8.773438 8.105468-12.777344h1.90625c9.109375 0 16.519532 7.410156 16.519532 16.519532 0 9.105468-7.410157 16.515624-16.519532 16.515624h-152.15625c-22.355468 0-40.542968-18.4375-40.542968-40.792968 0-16.925782 10.433593-31.707032 25.203124-37.769532zm0 0"/><path d="m356.867188 300.28125c-12.96875 0-23.523438 10.550781-23.523438 23.523438 0 12.96875 10.554688 23.523437 23.523438 23.523437 12.972656 0 23.523437-10.554687 23.523437-23.523437 0-12.972657-10.550781-23.523438-23.523437-23.523438zm0 32.03125c-4.691407 0-8.507813-3.816406-8.507813-8.507812 0-4.691407 3.816406-8.507813 8.507813-8.507813 4.691406 0 8.507812 3.816406 8.507812 8.507813 0 4.691406-3.816406 8.507812-8.507812 8.507812zm0 0"/><path d="m376.890625 192.167969c-12.972656 0-23.527344 10.550781-23.527344 23.523437s10.554688 23.523438 23.527344 23.523438c12.96875 0 23.523437-10.550782 23.523437-23.523438s-10.554687-23.523437-23.523437-23.523437zm0 32.03125c-4.691406 0-8.511719-3.816407-8.511719-8.507813s3.820313-8.507812 8.511719-8.507812c4.6875 0 8.507813 3.816406 8.507813 8.507812s-3.816407 8.507813-8.507813 8.507813zm0 0"/><path d="m224.730469 343.324219c12.972656 0 23.523437-10.554688 23.523437-23.523438 0-12.972656-10.550781-23.527343-23.523437-23.527343-12.972657 0-23.523438 10.554687-23.523438 23.527343 0 12.96875 10.550781 23.523438 23.523438 23.523438zm0-32.035157c4.691406 0 8.507812 3.820313 8.507812 8.511719 0 4.691407-3.816406 8.507813-8.507812 8.507813-4.691407 0-8.507813-3.816406-8.507813-8.507813 0-4.691406 3.816406-8.511719 8.507813-8.511719zm0 0"/></svg>