<svg height="512pt" viewBox="0 -16 512 511" width="512pt" xmlns="http://www.w3.org/2000/svg"><path d="m240 119c2.507812 0 5.042969.078125 7.539062.230469l.921876-14.96875c-2.800782-.171875-5.648438-.261719-8.460938-.261719-74.714844 0-135.5 60.785156-135.5 135.5s60.785156 135.5 135.5 135.5c2.8125 0 5.660156-.089844 8.460938-.261719l-.921876-14.96875c-2.496093.152344-5.03125.230469-7.539062.230469-66.445312 0-120.5-54.058594-120.5-120.5 0-66.445312 54.054688-120.5 120.5-120.5zm0 0"/><path d="m247.550781.5h-15.101562l-26.582031 87h68.265624zm-7.550781 26.621094 13.867188 45.378906h-27.734376zm0 0"/><path d="m232.449219 479.5h15.101562l26.582031-87h-68.265624zm7.550781-26.621094-13.867188-45.378906h27.734376zm0 0"/><path d="m65.308594 403.511719 10.679687 10.679687 80.316407-42.722656-48.273438-48.269531zm66.054687-35.765625-41.890625 22.28125 22.28125-41.890625zm0 0"/><path d="m87 205.367188-87 26.582031v15.101562l87 26.582031zm-15 48-45.378906-13.867188 45.378906-13.867188zm0 0"/><path d="m156.300781 107.53125-80.3125-42.722656-10.679687 10.679687 42.722656 80.3125zm-24.9375 3.722656-19.609375 19.609375-22.28125-41.890625zm0 0"/><path d="m288 232.5h16v15h-16zm0 0"/><path d="m320 232.5h16v15h-16zm0 0"/><path d="m352 232.5h16v15h-16zm0 0"/><path d="m303.5 191.5c0-12.957031-10.542969-23.5-23.5-23.5s-23.5 10.542969-23.5 23.5 10.542969 23.5 23.5 23.5 23.5-10.542969 23.5-23.5zm-32 0c0-4.6875 3.8125-8.5 8.5-8.5s8.5 3.8125 8.5 8.5-3.8125 8.5-8.5 8.5-8.5-3.8125-8.5-8.5zm0 0"/><path d="m304 319c12.957031 0 23.5-10.542969 23.5-23.5s-10.542969-23.5-23.5-23.5-23.5 10.542969-23.5 23.5 10.542969 23.5 23.5 23.5zm0-32c4.6875 0 8.5 3.8125 8.5 8.5s-3.8125 8.5-8.5 8.5-8.5-3.8125-8.5-8.5 3.8125-8.5 8.5-8.5zm0 0"/><path d="m224.5 247.5c0 12.957031 10.542969 23.5 23.5 23.5s23.5-10.542969 23.5-23.5-10.542969-23.5-23.5-23.5-23.5 10.542969-23.5 23.5zm32 0c0 4.6875-3.8125 8.5-8.5 8.5s-8.5-3.8125-8.5-8.5 3.8125-8.5 8.5-8.5 8.5 3.8125 8.5 8.5zm0 0"/><path d="m436.390625 186.785156c8.035156 16.488282 12.109375 34.226563 12.109375 52.714844 0 66.445312-54.054688 120.5-120.5 120.5s-120.5-54.054688-120.5-120.5 54.054688-120.5 120.5-120.5c21.1875 0 42.019531 5.574219 60.246094 16.117188l7.511718-12.984376c-20.503906-11.863281-43.9375-18.132812-67.757812-18.132812-74.714844 0-135.5 60.785156-135.5 135.5s60.785156 135.5 135.5 135.5 135.5-60.785156 135.5-135.5c0-20.785156-4.585938-40.734375-13.625-59.285156zm0 0"/><path d="m408.5 239.5h15c0-52.660156-42.839844-95.5-95.5-95.5v15c44.386719 0 80.5 36.113281 80.5 80.5zm0 0"/><path d="m392 159c13.511719 0 24.5 10.988281 24.5 24.5h15c0-13.511719 10.988281-24.5 24.5-24.5v-15c-13.511719 0-24.5-10.988281-24.5-24.5h-15c0 13.511719-10.988281 24.5-24.5 24.5zm32-16.382812c2.472656 3.410156 5.472656 6.410156 8.882812 8.882812-3.410156 2.472656-6.410156 5.472656-8.882812 8.882812-2.472656-3.410156-5.472656-6.410156-8.882812-8.882812 3.410156-2.472656 6.410156-5.472656 8.882812-8.882812zm0 0"/><path d="m487.5 71.5h-15c0 13.511719-10.988281 24.5-24.5 24.5v15c13.511719 0 24.5 10.988281 24.5 24.5h15c0-13.511719 10.988281-24.5 24.5-24.5v-15c-13.511719 0-24.5-10.988281-24.5-24.5zm-7.5 40.882812c-2.472656-3.410156-5.472656-6.410156-8.882812-8.882812 3.410156-2.472656 6.410156-5.472656 8.882812-8.882812 2.472656 3.410156 5.472656 6.410156 8.882812 8.882812-3.410156 2.472656-6.410156 5.472656-8.882812 8.882812zm0 0"/></svg>