<svg height="512pt" viewBox="-72 0 512 512" width="512pt" xmlns="http://www.w3.org/2000/svg"><path d="m112.273438 417.019531h16.039062v15.035157h-16.039062zm0 0"/><path d="m144.351562 417.019531h16.039063v15.035157h-16.039063zm0 0"/><path d="m176.429688 417.019531h16.039062v15.035157h-16.039062zm0 0"/><path d="m224.546875 384.941406h-209.511719v-273.667968h273.667969v240.585937h15.039063v-319.78125h-32.078126v-32.078125h-47.117187v32.078125h-17.039063v-32.078125h-47.117187v32.078125h-17.039063v-32.078125h-47.117187v32.078125h-17.042969v-32.078125h-47.113281v32.078125h-32.078125v367.898437h224.546875zm15.039063-369.90625h17.039062v41.101563h-17.039062zm-64.15625 0h17.039062v41.101563h-17.039062zm-64.15625 0h17.039062v41.101563h-17.039062zm-64.160157 0h17.042969v41.101563h-17.042969zm-32.078125 32.078125h17.042969v24.058594h47.113281v-24.058594h17.042969v24.058594h47.117187v-24.058594h17.039063v24.058594h47.117187v-24.058594h17.039063v24.058594h47.117187v-24.058594h17.039063v49.121094h-273.667969zm0 0"/><path d="m255.625 351.859375v-207.507813h-207.507812v207.507813zm-48.117188-192.46875h33.078126v33.078125h-33.078126zm0 48.117187h33.078126v33.078126h-33.078126zm0 48.117188h33.078126v33.078125h-33.078126zm0 48.117188h33.078126v33.082031h-33.078126zm-48.117187-144.351563h33.078125v33.078125h-33.078125zm0 48.117187h33.078125v33.078126h-33.078125zm0 48.117188h33.078125v33.078125h-33.078125zm0 48.117188h33.078125v33.082031h-33.078125zm-48.117187-144.351563h33.078124v33.078125h-33.078124zm0 48.117187h33.078124v33.078126h-33.078124zm0 48.117188h33.078124v33.078125h-33.078124zm0 48.117188h33.078124v33.082031h-33.078124zm-48.121094-144.351563h33.082031v33.078125h-33.082031zm0 48.117187h33.082031v33.078126h-33.082031zm0 48.117188h33.082031v33.078125h-33.082031zm0 48.117188h33.082031v33.082031h-33.082031zm0 0"/><path d="m0 417.019531h96.234375v15.035157h-96.234375zm0 0"/><path d="m296.722656 368.398438c-39.519531 0-71.671875 32.40625-71.671875 71.925781 0 2.886719.191407 5.765625.523438 8.773437h-225.574219v15.035156h229.046875c9.765625 27.066407 36.410156 47.867188 67.675781 47.867188 39.523438 0 71.675782-32.277344 71.675782-71.800781 0-39.519531-32.152344-71.800781-71.675782-71.800781zm0 128.3125c-31.226562 0-56.636718-25.40625-56.636718-56.636719s25.410156-56.636719 56.636718-56.636719c31.230469 0 56.640625 25.40625 56.640625 56.636719s-25.410156 56.636719-56.640625 56.636719zm0 0"/><path d="m303.742188 407.996094h-15.039063v44.121094l27.660156 18.269531 8.214844-12.507813-20.835937-13.808594zm0 0"/></svg>