<svg height="512pt" viewBox="0 -88 512 512" width="512pt" xmlns="http://www.w3.org/2000/svg"><path d="m423 272.5v-25h40l-24-32h24l-24-32h24l-54-72h31c12.957031 0 23.5-10.542969 23.5-23.5s-10.542969-23.5-23.5-23.5h-120c-4.6875 0-8.5-3.8125-8.5-8.5s3.8125-8.5 8.5-8.5h56c12.957031 0 23.5-10.792969 23.5-23.75s-10.542969-23.75-23.5-23.75v15c4.6875 0 8.5 4.0625 8.5 8.75s-3.8125 8.75-8.5 8.75h-96c-12.957031 0-23.5 10.542969-23.5 23.5s10.542969 23.5 23.5 23.5h120c4.6875 0 8.5 3.8125 8.5 8.5s-3.8125 8.5-8.5 8.5h-152c-12.957031 0-23.5 10.292969-23.5 23.25 0 5.535156 1.929688 10.75 5.140625 14.769531l-36.640625 48.980469h24l-24 32h24l-24 32h39v25h-97v-25h40l-24-32h24l-24-32h24l-24.996094-33.578125-12 9.125 6.996094 9.453125h-66l18.75-25h62.25c4.6875 0 8 3.3125 8 8v8h15v-8c0-12.957031-10.042969-23-23-23h-96c-4.6875 0-8.5-3.8125-8.5-8.5s3.8125-8.5 8.5-8.5h112c12.957031 0 23.5-10.542969 23.5-23.5s-10.542969-23.5-23.5-23.5h-72c-4.6875 0-8.5-3.8125-8.5-8.5s3.8125-8.5 8.5-8.5h40c12.957031 0 23.5-10.792969 23.5-23.75s-10.542969-23.75-23.5-23.75v15c4.6875 0 8.5 4.0625 8.5 8.75s-3.8125 8.75-8.5 8.75h-80c-12.957031 0-23.5 10.542969-23.5 23.5s10.542969 23.5 23.5 23.5h72c4.6875 0 8.5 3.8125 8.5 8.5s-3.8125 8.5-8.5 8.5h-112c-12.957031 0-23.5 10.542969-23.5 23.5s10.542969 23.5 23.5 23.5h55l-30 40h24l-24 32h24l-24 32h39v25h-88v15h512v-15zm-1.097656-193h18.097656c4.6875 0 8.5 3.8125 8.5 8.5s-3.8125 8.5-8.5 8.5h-18.097656c1.027344-3 1.597656-5.503906 1.597656-8.5s-.570312-6.5-1.597656-8.5zm-123.804688-15h-18.097656c-4.6875 0-8.5-3.8125-8.5-8.5s3.8125-8.5 8.5-8.5h18.097656c-1.027344 2-1.597656 5.503906-1.597656 8.5s.570312 5.5 1.597656 8.5zm-216 0h-18.097656c-4.6875 0-8.5-3.8125-8.5-8.5s3.8125-8.5 8.5-8.5h18.097656c-1.027344 2-1.597656 5.503906-1.597656 8.5s.570312 5.5 1.597656 8.5zm75.804688 15h18.097656c4.6875 0 8.5 3.8125 8.5 8.5s-3.8125 8.5-8.5 8.5h-18.097656c1.027344-3 1.597656-5.503906 1.597656-8.5s-.570312-6.5-1.597656-8.5zm-115.804688 49h-18.097656c-4.6875 0-8.5-3.8125-8.5-8.5s3.8125-8.5 8.5-8.5h18.097656c-1.027344 2-1.597656 5.503906-1.597656 8.5s.570312 5.5 1.597656 8.5zm49.652344 55h40.5l12.75 17h-66zm-12.75 49 12.75-17h40.5l12.75 17zm41 40h-17v-25h17zm247-40 12.75-17h40.5l12.75 17zm0-32 12.75-17h40.5l12.75 17zm66-32h-66l33-44zm-185-57h18.097656c-1.027344 2-1.597656 5.503906-1.597656 8.5s.570312 5.5 1.597656 8.5h-18.097656c-4.6875 0-8.5-3.8125-8.5-8.5s3.8125-8.5 8.5-8.5zm-25 121 12.75-17h40.5l12.75 17zm0-32 12.75-17h40.5l12.75 17zm41 72h-17v-25h17zm112 0h-97v-25h40l-24-32h24l-24-32h24l-25-33.582031-12 9.125 7 9.457031h-66l19.28125-25.707031c1.832031.460937 3.746094.707031 5.71875.707031h64c4.6875 0 8 3.3125 8 8v8h15v-8c0-12.957031-10.042969-23-23-23h-24c-4.6875 0-8.5-3.8125-8.5-8.5s3.8125-8.5 8.5-8.5h103l-54 72h24l-24 32h24l-24 32h39zm32 0h-17v-25h17zm0 0"/><path d="m0 320.5h512v15h-512zm0 0"/><path d="m216 296.5h16v15h-16zm0 0"/><path d="m248 296.5h16v15h-16zm0 0"/><path d="m280 296.5h16v15h-16zm0 0"/></svg>