<svg height="512pt" viewBox="-80 0 512 512.001" width="512pt" xmlns="http://www.w3.org/2000/svg"><path d="m111.820312 425.21875h16.046876v15.042969h-16.046876zm0 0"/><path d="m143.914062 425.21875h16.042969v15.042969h-16.042969zm0 0"/><path d="m176.003906 425.21875h16.046875v15.042969h-16.046875zm0 0"/><path d="m151.933594 496.925781c-75.480469 0-136.890625-61.410156-136.890625-136.894531 0-37.199219 14.699219-71.820312 40.011719-97.015625 2.84375 2.875 5.617187 5.605469 8.628906 8.203125v120.90625h15.042968v-24.070312h9.023438v24.070312h15.042969v-24.070312h9.027343v24.070312h15.042969v-91.003906c9.027344 1.480468 16.519531 2.25 24.820313 2.25 36.367187 0 71.273437-14.613282 96.730468-40.328125 6.472657 6.457031 12.402344 13.570312 17.539063 21.296875l12.558594-8.328125c-14.941407-22.476563-35.332031-40.382813-59.335938-52.230469 12.785157-15.25 20.503907-34.640625 20.503907-56.050781 0-17.601563-5.128907-34.347657-14.683594-48.386719h39.261718v-15.042969h-49.140624v-104.300781h-127.363282v104.300781h-48.140625v15.042969h39.273438c-9.554688 14.039062-14.703125 30.839844-14.703125 48.386719 0 21.410156 7.714844 40.925781 20.5 56.175781-51.722656 25.511719-84.683594 77.976562-84.683594 136.191406 0 83.777344 68.15625 151.902344 151.9375 151.902344 51 0 98.332031-25.402344 126.609375-67.929688l-12.527344-8.335937c-25.484375 38.320313-68.128906 61.191406-114.085937 61.191406zm-40.113282-143.914062h-33.09375v-17.046875h33.09375zm0-32.089844h-33.09375v-38.664063c11.03125 6.527344 22.0625 11.640626 33.09375 15.195313zm-9.027343-305.878906h97.28125v57.164062h-97.28125zm0 72.207031h97.28125v17.050781h-97.28125zm-23.566407 80.542969c0-18.113281 6.613282-35.414063 18.675782-48.449219h108.058594c12.074218 13.035156 18.683593 30.214844 18.683593 48.386719 0 40.09375-32.617187 72.585937-72.710937 72.585937-40.089844 0-72.707032-32.429687-72.707032-72.523437zm16.796876 67.269531c15.195312 12.59375 34.683593 20.167969 55.910156 20.167969 21.230468 0 40.71875-7.574219 55.914062-20.167969 10.597656 4.75 20.347656 10.777344 29.324219 17.941406-22.589844 22.53125-53.40625 35.324219-85.488281 35.324219-26.433594 0-51.898438-8.6875-72.960938-24.339844v-.230469h.199219c-4.339844-3.289062-8.472656-6.886718-12.367187-10.769531 8.898437-7.089843 18.769531-13.132812 29.46875-17.925781zm0 0"/><path d="m352.511719 353.011719h-21.957031l11.226562-11.476563-10.632812-10.765625-18.753907 18.691407-13.429687-13.464844 18.75-18.765625-10.886719-10.644531-11.480469 11.21875v-21.957032h-15.042968v21.957032l-10.976563-11.230469-10.511719 10.640625 18.808594 18.75-13.398438 13.429687-18.734374-18.75-10.628907 10.890625 11.234375 11.476563h-21.953125v15.042969h21.953125l-11.226562 10.980468 10.636718 10.511719 18.75-18.816406 13.429688 13.402343-18.75 18.734376 10.386719 10.628906 10.976562-11.234375v21.957031h15.046875v-21.957031l11.476563 11.230469 10.761719-10.640626-18.683594-18.75 13.460937-13.433593 18.765625 18.753906 10.644532-10.386719-11.21875-10.980468h21.957031zm-64.183594 20.453125-13.433594-13.433594 13.433594-13.429688 13.429687 13.429688zm0 0"/></svg>