<svg height="512pt" viewBox="0 -56 512 512" width="512pt" xmlns="http://www.w3.org/2000/svg"><path d="m452.117188 256-55.316407-87.179688-55.203125-15.898437-47.695312-119.042969-68.132813-33.878906h-14.53125l-64.765625 137.382812-40.03125 16.136719-47.242187 102.480469h-59.199219v15h512v-15zm-376.394532 0 41.835938-90.894531 39.96875-16.113281 59.863281-127.269532 37.738281 50.582032-59.691406 110.695312h62.835938l19.832031 73zm217.933594 0-23.929688-88h-49.164062l52.308594-97.023438-37.039063-49.675781 46.265625 23.132813 48.304688 120.769531 56.800781 16.476563 47.136719 74.320312zm0 0"/><path d="m32 288h112v15h-112zm0 0"/><path d="m320 320h144v15h-144zm0 0"/><path d="m112 320h80v15h-80zm0 0"/><path d="m216 320h16v15h-16zm0 0"/><path d="m248 320h16v15h-16zm0 0"/><path d="m280 320h16v15h-16zm0 0"/><path d="m296 352h216v15h-216zm0 0"/><path d="m0 352h80v15h-80zm0 0"/><path d="m0 384h512v15h-512zm0 0"/></svg>