<svg height="512pt" viewBox="-144 0 511 512" width="512pt" xmlns="http://www.w3.org/2000/svg"><path d="m72.640625 464.90625h16.03125v15.03125h-16.03125zm0 0"/><path d="m104.703125 464.90625h16.03125v15.03125h-16.03125zm0 0"/><path d="m136.765625 464.90625h16.03125v15.03125h-16.03125zm0 0"/><path d="m.5 0v512h223.4375v-512zm208.40625 496.96875h-193.375v-481.9375h193.375zm0 0"/><path d="m88.671875 358.410156c-14.027344 8.398438-23.796875 24.140625-23.796875 41.371094 0 26.242188 21.476562 47.59375 47.71875 47.59375s47.40625-21.351562 47.40625-47.59375c0-17.234375-9.207031-32.976562-24.234375-41.375v-294.28125h-47.09375v16.03125h-48.09375v15.03125h48.09375v17.03125h-24.046875v15.03125h24.046875v17.03125h-48.09375v15.03125h48.09375v17.03125h-24.046875v15.03125h24.046875v17.03125h-48.09375v15.03125h48.09375v17.03125h-24.046875v15.03125h24.046875v17.03125h-48.09375v15.03125h48.09375v17.03125h-24.046875v15.03125h24.046875v17.03125h-48.09375v15.03125h48.09375zm15.03125-279.253906h17.03125v225.4375h-17.03125zm-4.257813 290.765625 4.257813-1.96875v-48.328125h17.03125v48.328125l4.757813 1.96875c11.871093 5.183594 19.789062 16.90625 19.789062 29.859375 0 17.957031-14.605469 32.5625-32.5625 32.5625s-32.5625-14.605469-32.5625-32.5625c0-12.953125 7.417969-24.671875 19.289062-29.859375zm0 0"/><path d="m167.828125 79.15625h17.03125v-15.03125h-17.03125v-9.015625h17.03125v-15.03125h-20.039063c-6.351562 0-12.023437 4.667969-12.023437 11.023437v44.085938h15.03125zm0 0"/></svg>