<svg height="512pt" viewBox="-112 0 512 512" width="512pt" xmlns="http://www.w3.org/2000/svg"><path d="m104.203125 432.84375h16.03125v15.03125h-16.03125zm0 0"/><path d="m136.265625 432.84375h16.03125v15.03125h-16.03125zm0 0"/><path d="m168.328125 432.84375h16.03125v15.03125h-16.03125zm0 0"/><path d="m280.546875 208.40625c-13.535156 0-25.046875-11.511719-25.046875-25.046875v-183.359375h-55.109375v87.171875c0 22.375-17.703125 41.078125-40.078125 41.078125h-32.0625c-22.375 0-41.078125-18.703125-41.078125-41.078125v-87.171875h-55.109375v183.359375c0 13.535156-10.511719 25.046875-24.046875 25.046875h-8.015625v303.59375h287.5625v-303.59375zm-193.375-83.273438c11.019531 10.847657 25.082031 18.148438 41.078125 18.148438h32.0625c15.996094 0 30.058594-7.300781 40.078125-18.148438v10.132813c0 22.375-17.703125 41.078125-40.078125 41.078125h-32.0625c-22.375 0-41.078125-18.703125-41.078125-41.078125zm185.359375 371.835938h-257.5v-17.03125h257.5zm0-32.0625h-257.5v-73.140625h257.5zm0-88.171875h-257.5v-17.03125h257.5zm0-32.0625h-257.5v-17.03125h257.5zm0-32.0625h-257.5v-17.03125h257.5zm0-32.0625h-257.5v-58.328125c19.035156-3.519531 32.0625-19.605469 32.0625-38.859375v-168.328125h25.046875v120.234375c0 30.660156 25.445313 56.109375 56.109375 56.109375h32.0625c30.664062 0 55.109375-25.449219 55.109375-56.109375v-120.234375h25.046875v168.328125c0 19.253906 14.027344 35.339844 32.0625 38.859375zm0 0"/></svg>