<svg height="512pt" viewBox="0 -48 512 512" width="512pt" xmlns="http://www.w3.org/2000/svg"><path d="m512 0h-512v335.65625h243.230469l-39.078125 65.125h-27.808594v15.03125h160.3125v-15.03125h-27.808594l-39.074218-65.125h242.226562zm-220.675781 400.78125h-69.644531l34.820312-58.035156zm205.644531-80.15625h-481.9375v-305.59375h481.9375zm0 0"/><path d="m479.9375 32.0625h-447.875v271.53125h447.875zm-15.03125 256.5h-417.8125v-241.46875h417.8125zm0 0"/><path d="m192.375 63.125h15.03125v24.046875h-15.03125zm0 0"/><path d="m120.234375 136.265625h24.046875v15.03125h-24.046875zm0 0"/><path d="m149.027344 81.285156 17.003906 17.003906-10.625 10.628907-17.003906-17.003907zm0 0"/><path d="m251.769531 81.28125 10.628907 10.628906-17.003907 17.003906-10.628906-10.628906zm0 0"/><path d="m149.011719 205.273438-10.628907-10.628907 17.003907-17.003906 10.628906 10.628906zm0 0"/><path d="m248.484375 216.421875h16.03125v15.03125h-16.03125zm0 0"/><path d="m280.546875 216.421875h16.03125v15.03125h-16.03125zm0 0"/><path d="m312.609375 216.421875h16.03125v15.03125h-16.03125zm0 0"/><path d="m296.578125 150.792969v-15.027344c-26.242187 0-47.59375 21.351563-47.59375 47.59375h15.03125c0-17.957031 14.609375-32.566406 32.5625-32.566406zm0 0"/><path d="m182.738281 178.6875c-8.644531 9.804688-13.910156 22.914062-13.910156 36.984375 0 30.664063 24.949219 55.859375 55.609375 55.859375h152.296875c17.40625 0 31.5625-14.410156 31.5625-31.8125 0-16.058594-12.058594-29.597656-27.59375-31.554688 2.339844-7.964843 3.546875-16.289062 3.546875-24.804687 0-48.34375-39.328125-87.671875-87.671875-87.671875-24.554687 0-46.777344 10.148438-62.707031 26.46875-7.101563-11.25-19.605469-18.453125-33.480469-18.453125-21.820313 0-39.578125 17.753906-39.578125 39.578125 0 15.480469 8.941406 28.90625 21.925781 35.40625zm113.839844-67.972656c40.054687 0 72.644531 32.589844 72.644531 72.644531 0 15.867187-5.023437 30.941406-14.527344 43.585937l12.015626 9.277344c3.113281-4.140625 5.8125-8.777344 8.117187-12.785156h1.90625c9.117187 0 16.535156 7.414062 16.535156 16.53125s-7.417969 16.53125-16.535156 16.53125h-152.296875c-22.375 0-40.578125-18.453125-40.578125-40.828125 0-13.324219 6.453125-25.289063 16.398437-32.691406.046876 0 .132813-.125.132813-.125v-.09375c3.007813-1.972657 5.585937-3.617188 8.695313-4.894531-.113282 1.816406-.179688 3.644531-.179688 5.492187 0 5.894531.59375 11.792969 1.753906 17.523437l14.730469-2.988281c-.964844-4.75-1.453125-9.640625-1.453125-14.535156 0-40.054687 32.585938-72.644531 72.640625-72.644531zm-96.1875 8.015625c10.449219 0 19.648437 6.582031 23.109375 16.253906-5.285156 7.957031-9.3125 16.824219-11.777344 26.3125-5.496094 1.292969-10.679687 3.394531-15.414062 6.183594-11.601563-1.949219-20.464844-12.054688-20.464844-24.199219 0-13.539062 11.011719-24.550781 24.546875-24.550781zm0 0"/></svg>