<svg height="512pt" viewBox="-108 0 512 512" width="512pt" xmlns="http://www.w3.org/2000/svg"><path d="m24.046875 0v143.28125h15.03125v-64.125h241.46875v200.390625h15.03125v-279.546875zm256.5 64.125h-241.46875v-49.09375h241.46875zm0 0"/><path d="m280.546875 432.84375h-241.46875v-129.25h-15.03125v208.40625h271.53125v-152.296875h-15.03125zm0 64.125h-241.46875v-49.09375h241.46875zm0 0"/><path d="m40.578125 223.4375c0 15.480469 8.941406 28.90625 21.925781 35.40625-8.648437 9.804688-13.910156 22.914062-13.910156 36.984375 0 30.664063 24.945312 55.859375 55.609375 55.859375h152.296875c17.402344 0 31.5625-14.410156 31.5625-31.8125 0-16.058594-12.058594-29.472656-27.59375-31.429688 2.339844-7.964843 3.546875-16.351562 3.546875-24.867187 0-48.34375-39.328125-87.703125-87.671875-87.703125-24.554688 0-46.777344 10.136719-62.707031 26.457031-7.101563-11.253906-19.605469-18.464843-33.480469-18.464843-21.824219 0-39.578125 17.746093-39.578125 39.570312zm135.765625-32.566406c40.054688 0 72.640625 32.589844 72.640625 72.644531 0 15.867187-5.019531 30.941406-14.523437 43.585937l12.015624 9.28125c3.113282-4.144531 5.8125-8.78125 8.117188-12.789062h1.90625c9.117188 0 16.535156 7.414062 16.535156 16.53125s-7.417968 16.53125-16.535156 16.53125h-152.296875c-22.375 0-40.578125-18.453125-40.578125-40.828125 0-13.324219 6.453125-25.289063 16.398438-32.691406.046874 0 .132812-.121094.132812-.121094v-.097656c3.007812-1.972657 5.585938-3.617188 8.695312-4.894531-.113281 1.816406-.179687 3.648437-.179687 5.492187 0 5.898437.589844 11.792969 1.753906 17.523437l14.730469-2.988281c-.964844-4.75-1.453125-9.640625-1.453125-14.535156 0-40.054687 32.585937-72.644531 72.640625-72.644531zm-96.1875 8.015625c10.449219 0 19.648438 6.582031 23.109375 16.253906-5.285156 7.960937-9.3125 16.824219-11.777344 26.3125-5.496093 1.292969-10.679687 3.394531-15.414062 6.183594-11.601563-1.949219-20.464844-12.054688-20.464844-24.199219 0-13.539062 11.011719-24.550781 24.546875-24.550781zm0 0"/><path d="m72.140625 143.28125h15.03125v24.046875h-15.03125zm0 0"/><path d="m0 216.421875h24.046875v15.03125h-24.046875zm0 0"/><path d="m35.164062 189.078125-17.003906-17.003906 10.628906-10.628907 17.003907 17.003907zm0 0"/><path d="m114.515625 178.453125 17.003906-17.003906 10.628907 10.628906-17.003907 17.003906zm0 0"/><path d="m35.179688 257.800781 10.628906 10.625-17.003906 17.003907-10.625-10.625zm0 0"/><path d="m128.25 296.578125h16.03125v15.03125h-16.03125zm0 0"/><path d="m160.3125 296.578125h16.03125v15.03125h-16.03125zm0 0"/><path d="m192.375 296.578125h16.03125v15.03125h-16.03125zm0 0"/><path d="m176.34375 230.949219v-15.027344c-26.242188 0-47.59375 21.351563-47.59375 47.59375h15.03125c0-17.957031 14.609375-32.566406 32.5625-32.566406zm0 0"/><path d="m120.234375 464.90625h80.15625v15.03125h-80.15625zm0 0"/><path d="m112.21875 32.0625h16.03125v15.03125h-16.03125zm0 0"/><path d="m144.28125 32.0625h64.125v15.03125h-64.125zm0 0"/></svg>