<svg height="512pt" viewBox="-120 0 512 512" width="512pt" xmlns="http://www.w3.org/2000/svg"><path d="m96.1875 400.78125h16.03125v15.03125h-16.03125zm0 0"/><path d="m128.25 400.78125h16.03125v15.03125h-16.03125zm0 0"/><path d="m160.3125 400.78125h16.03125v15.03125h-16.03125zm0 0"/><path d="m112.21875 294.285156c-14.027344 8.398438-23.796875 24.140625-23.796875 41.371094 0 26.242188 21.476563 47.59375 47.71875 47.59375s47.40625-21.351562 47.40625-47.59375c0-17.234375-9.207031-32.976562-24.234375-41.375v-166.03125h-47.09375v16.03125h-48.09375v15.03125h48.09375v17.03125h-24.046875v15.03125h24.046875v17.03125h-48.09375v15.03125h48.09375v17.03125h-24.046875v15.03125h24.046875v17.03125h-48.09375v15.03125h48.09375zm15.03125-151.003906h17.03125v97.1875h-17.03125zm-4.257812 162.515625 4.257812-1.96875v-48.328125h17.03125v48.328125l4.757812 1.96875c11.871094 5.183594 19.789063 16.90625 19.789063 29.859375 0 17.957031-14.605469 32.5625-32.5625 32.5625s-32.5625-14.605469-32.5625-32.5625c0-12.953125 7.417969-24.671875 19.289063-29.859375zm0 0"/><path d="m0 0v512h271.53125v-512zm256.5 496.96875h-241.46875v-49.09375h241.46875zm0-64.125h-241.46875v-353.6875h241.46875zm0-368.71875h-241.46875v-49.09375h241.46875zm0 0"/><path d="m96.1875 464.90625h80.15625v15.03125h-80.15625zm0 0"/><path d="m88.171875 32.0625h16.03125v15.03125h-16.03125zm0 0"/><path d="m120.234375 32.0625h64.125v15.03125h-64.125zm0 0"/></svg>