<svg height="512pt" viewBox="0 -64 512 512" width="512pt" xmlns="http://www.w3.org/2000/svg"><path d="m191.6875 251.113281h-160.15625c-9.105469 0-16.515625-7.660156-16.515625-16.765625 0-9.105468 7.410156-16.640625 16.515625-16.640625s16.515625 7.285157 16.515625 16.390625h15.015625c0-17.386718-14.144531-31.53125-31.53125-31.53125s-31.53125 14.394532-31.53125 31.78125c0 17.386719 14.144531 31.78125 31.53125 31.78125h160.15625zm0 0"/><path d="m63.5625 330.691406c-9.105469 0-16.515625-7.160156-16.515625-16.265625s7.410156-16.265625 16.515625-16.265625h80.078125v-15.015625h-80.078125c-17.386719 0-31.53125 13.894531-31.53125 31.28125s14.144531 31.40625 31.53125 31.40625 31.53125-14.269531 31.53125-31.65625h-15.015625c0 9.105469-7.410156 16.515625-16.515625 16.515625zm0 0"/><path d="m455.945312 251.113281h-96.09375v15.015625h96.09375c17.386719 0 31.53125-14.394531 31.53125-31.78125 0-17.386718-14.144531-31.65625-31.53125-31.65625-17.386718 0-31.53125 14.019532-31.53125 31.40625h15.015626c0-9.105468 7.410156-16.515625 16.515624-16.515625 9.105469 0 16.515626 7.660157 16.515626 16.765625 0 9.105469-7.410157 16.765625-16.515626 16.765625zm0 0"/><path d="m32.03125 154.269531c0 17.386719 14.144531 31.40625 31.53125 31.40625s31.53125-14.269531 31.53125-31.65625h-15.015625c0 9.105469-7.410156 16.515625-16.515625 16.515625s-16.515625-7.160156-16.515625-16.265625 7.410156-16.265625 16.515625-16.265625h248.242188v-15.015625h-248.242188c-17.386719 0-31.53125 13.894531-31.53125 31.28125zm0 0"/><path d="m175.671875 90.957031h16.015625v15.015625h-16.015625zm0 0"/><path d="m31.53125 105.972656h128.125v-15.015625h-128.125c-9.105469 0-16.515625-7.660156-16.515625-16.765625 0-9.105468 7.410156-16.640625 16.515625-16.640625s16.515625 7.285157 16.515625 16.390625h15.015625c0-17.386718-14.144531-31.53125-31.53125-31.53125s-31.53125 14.394532-31.53125 31.78125c0 17.386719 14.144531 31.78125 31.53125 31.78125zm0 0"/><path d="m479.96875 283.144531h-192.1875v15.015625h192.1875c9.105469 0 16.515625 7.160156 16.515625 16.265625s-7.410156 16.390625-16.515625 16.390625-16.515625-7.535156-16.515625-16.640625h-15.015625c0 17.386719 14.144531 31.53125 31.53125 31.53125s31.53125-13.894531 31.53125-31.28125-14.144531-31.28125-31.53125-31.28125zm0 0"/><path d="m255.75 283.144531h16.015625v15.015625h-16.015625zm0 0"/><path d="m335.828125 122.988281h80.078125v15.015625h-80.078125zm0 0"/><path d="m303.796875 90.957031h208.203125v15.015625h-208.203125zm0 0"/><path d="m95.59375 203.066406h112.109375v15.015625h-112.109375zm0 0"/><path d="m383.875 171.035156h88.085938v15.015625h-88.085938zm0 0"/><path d="m175.671875 171.035156h96.09375v15.015625h-96.09375zm0 0"/><path d="m223.71875 203.066406h16.015625v15.015625h-16.015625zm0 0"/><path d="m207.703125 251.113281h16.015625v15.015625h-16.015625zm0 0"/><path d="m272.265625 218.082031c0 8.011719 2.371094 15.660157 6.777344 22.144531l-20.59375 20.59375 10.617187 10.617188 20.59375-20.59375c6.484375 4.40625 14.132813 6.777344 22.144532 6.777344 10.5625 0 20.488281-4.113282 27.957031-11.582032 13.378906-13.375 25.1875-64.304687 27.417969-74.378906l2.550781-11.5-11.5 2.546875c-10.074219 2.230469-61.003907 14.039063-74.382813 27.417969-7.46875 7.46875-11.582031 17.394531-11.582031 27.957031zm68.597656-7.007812h-10.933593l15.984374-15.984375c-1.71875 5.988281-3.417968 10.980468-5.050781 15.984375zm-22.050781-22.046875c5.003906-1.632813 9.996094-3.332032 15.984375-5.054688l-15.984375 15.984375zm16.105469 37.0625c-2.386719 5.003906-4.09375 8.203125-6.097657 9.582031v-.25c-4.003906 4.632813-10.628906 7.183594-17.179687 7.183594-3.960937 0-7.695313-.6875-11.121094-2.453125l14.394531-14.0625zm-40.703125-25.347656c1.378906-1.378907 4.578125-3.382813 9.582031-5.769532v20l-14.0625 14.3125c-1.765625-3.421875-2.703125-7.238281-2.703125-11.203125 0-6.550781 2.550781-12.710937 7.183594-17.339843zm0 0"/><path d="m155.722656 302.234375c-7.46875 7.46875-11.582031 17.394531-11.582031 27.957031 0 8.011719 2.371094 15.660156 6.777344 22.144532l-20.59375 20.59375 10.617187 10.617187 20.59375-20.59375c6.484375 4.40625 14.132813 6.777344 22.144532 6.777344 10.5625 0 20.488281-4.113281 27.957031-11.582031 13.378906-13.375 25.1875-64.304688 27.417969-74.378907l2.550781-11.5-11.5 2.546875c-10.078125 2.230469-61.003907 14.039063-74.382813 27.417969zm34.964844-1.097656c5.003906-1.632813 9.996094-3.332031 15.980469-5.054688l-15.980469 15.984375zm-31.53125 29.054687c0-6.550781 2.300781-12.707031 6.933594-17.339844 1.378906-1.378906 4.578125-3.382812 9.582031-5.769531v20l-14.0625 14.3125c-1.765625-3.425781-2.453125-7.238281-2.453125-11.203125zm41.539062 17.589844v-.25c-4.003906 4.632812-10.628906 7.183594-17.179687 7.183594-3.960937 0-7.695313-.6875-11.121094-2.453125l14.394531-14.0625h20c-2.382812 5.003906-4.089843 8.203125-6.09375 9.582031zm12.042969-24.597656h-10.933593l15.984374-15.984375c-1.71875 5.988281-3.417968 10.980469-5.050781 15.984375zm0 0"/><path d="m203.769531 85.882812c7.464844 7.46875 17.394531 11.582032 27.957031 11.582032 8.011719 0 15.65625-2.375 22.144532-6.777344l20.59375 20.59375 10.617187-10.617188-20.59375-20.59375c4.40625-6.488281 6.777344-14.132812 6.777344-22.144531 0-10.5625-4.113281-20.492187-11.582031-27.957031-13.378906-13.382812-64.308594-25.191406-74.378906-27.421875l-11.503907-2.546875 2.550781 11.5c2.230469 10.074219 14.039063 61.003906 27.417969 74.382812zm34.964844-51.070312c6.003906 2.386719 8.703125 4.390625 10.082031 5.773438 4.632813 4.628906 7.433594 10.789062 7.433594 17.339843 0 3.960938-1.191406 7.777344-2.953125 11.203125l-14.5625-14.316406zm4.195313 45.183594c-3.421876 1.765625-7.078126 2.453125-11.042969 2.453125-6.546875 0-13.171875-2.550781-17.175781-7.183594v.25c-2.003907-1.378906-3.710938-4.578125-6.09375-9.582031h20zm-19.210938-51.128906v10.933593l-15.988281-15.988281c5.988281 1.722656 11.984375 3.421875 15.988281 5.054688zm-10.117188 22.050781h-10.929687c-1.632813-5.003907-3.332031-9.996094-5.054687-15.984375zm0 0"/></svg>