<svg height="512pt" viewBox="0 -39 512 511" width="512pt" xmlns="http://www.w3.org/2000/svg"><path d="m239.734375 273.765625h-208.203125c-9.105469 0-16.515625-7.65625-16.515625-16.765625 0-9.105469 7.410156-16.640625 16.515625-16.640625s16.515625 7.28125 16.515625 16.390625h15.015625c0-17.386719-14.144531-31.53125-31.53125-31.53125s-31.53125 14.394531-31.53125 31.78125 14.144531 31.78125 31.53125 31.78125h208.203125zm0 0"/><path d="m63.5625 353.34375c-9.105469 0-16.515625-7.15625-16.515625-16.265625 0-9.105469 7.410156-16.265625 16.515625-16.265625h96.09375v-15.015625h-96.09375c-17.386719 0-31.53125 13.894531-31.53125 31.28125s14.144531 31.40625 31.53125 31.40625 31.53125-14.269531 31.53125-31.65625h-15.015625c0 9.105469-7.410156 16.515625-16.515625 16.515625zm0 0"/><path d="m455.945312 273.765625h-96.09375v15.015625h96.09375c17.386719 0 31.53125-14.394531 31.53125-31.78125s-14.144531-31.65625-31.53125-31.65625c-17.386718 0-31.53125 14.019531-31.53125 31.40625h15.015626c0-9.105469 7.410156-16.515625 16.515624-16.515625 9.105469 0 16.515626 7.660156 16.515626 16.765625s-7.410157 16.765625-16.515626 16.765625zm0 0"/><path d="m32.03125 176.921875c0 17.386719 14.144531 31.40625 31.53125 31.40625s31.53125-14.269531 31.53125-31.65625h-15.015625c0 9.105469-7.410156 16.515625-16.515625 16.515625s-16.515625-7.160156-16.515625-16.265625 7.410156-16.265625 16.515625-16.265625h248.242188v-15.015625h-248.242188c-17.386719 0-31.53125 13.894531-31.53125 31.28125zm0 0"/><path d="m183.679688 113.609375h16.015624v15.015625h-16.015624zm0 0"/><path d="m31.53125 128.625h136.132812v-15.015625h-136.132812c-9.105469 0-16.515625-7.660156-16.515625-16.765625s7.410156-16.640625 16.515625-16.640625 16.515625 7.285156 16.515625 16.390625h15.015625c0-17.386719-14.144531-31.53125-31.53125-31.53125s-31.53125 14.394531-31.53125 31.78125 14.144531 31.78125 31.53125 31.78125zm0 0"/><path d="m479.96875 305.796875h-208.203125v15.015625h208.203125c9.105469 0 16.515625 7.160156 16.515625 16.265625 0 9.109375-7.410156 16.390625-16.515625 16.390625s-16.515625-7.53125-16.515625-16.640625h-15.015625c0 17.386719 14.144531 31.53125 31.53125 31.53125s31.53125-13.894531 31.53125-31.28125-14.144531-31.28125-31.53125-31.28125zm0 0"/><path d="m239.734375 305.796875h16.015625v15.015625h-16.015625zm0 0"/><path d="m335.828125 145.640625h80.078125v15.015625h-80.078125zm0 0"/><path d="m279.773438 113.609375h232.226562v15.015625h-232.226562zm0 0"/><path d="m95.59375 225.71875h112.109375v15.015625h-112.109375zm0 0"/><path d="m383.875 193.6875h88.085938v15.015625h-88.085938zm0 0"/><path d="m175.671875 193.6875h80.078125v15.015625h-80.078125zm0 0"/><path d="m223.71875 225.71875h16.015625v15.015625h-16.015625zm0 0"/><path d="m255.75 273.765625h16.015625v15.015625h-16.015625zm0 0"/><path d="m253.050781 350.394531-10.617187-10.742187-18.714844 18.652344-13.40625-13.4375 18.714844-18.730469-10.867188-10.625-11.457031 11.199219v-21.914063h-15.015625v21.914063l-10.957031-11.207032-10.492188 10.617188 18.777344 18.714844-13.375 13.40625-18.699219-18.714844-10.609375 10.867187 11.214844 11.457031h-21.914063v15.015626h21.914063l-11.207031 10.957031 10.617187 10.492187 18.714844-18.777344 13.40625 13.375-18.714844 18.699219 10.363281 10.609375 10.960938-11.214844v21.914063h15.011719v-21.914063l11.460937 11.207032 10.742188-10.617188-18.652344-18.714844 13.433594-13.40625 18.734375 18.714844 10.625-10.367187-11.203125-10.957031h21.917968v-15.015626h-21.914062zm-53.355469 31.871094-13.40625-13.40625 13.40625-13.40625 13.40625 13.40625zm0 0"/><path d="m311.804688 168.664062v21.914063l-10.957032-11.207031-10.492187 10.617187 18.777343 18.714844-13.375 13.40625-18.699218-18.714844-10.609375 10.867188 11.214843 11.457031h-21.914062v15.015625h21.914062l-11.207031 10.957031 10.617188 10.492188 18.714843-18.78125 13.40625 13.375-18.714843 18.703125 10.367187 10.609375 10.957032-11.21875v21.917968h15.015624v-21.917968l11.457032 11.210937 10.742187-10.617187-18.652343-18.714844 13.4375-13.40625 18.730468 18.714844 10.625-10.367188-11.199218-10.957031h21.914062v-15.015625h-21.914062l11.207031-11.457031-10.617188-10.742188-18.714843 18.652344-13.40625-13.4375 18.714843-18.730469-10.867187-10.625-11.457032 11.199219v-21.914063zm21.414062 64.0625-13.40625 13.40625-13.40625-13.40625 13.40625-13.40625zm0 0"/><path d="m186.378906 83.527344 10.617188 10.492187 18.714844-18.777343 13.40625 13.375-18.714844 18.699218 10.367187 10.609375 10.957031-11.214843v21.914062h15.011719v-21.914062l11.460938 11.207031 10.742187-10.617188-18.652344-18.714843 13.433594-13.40625 18.734375 18.714843 10.625-10.367187-11.199219-10.957032h21.914063v-15.015624h-21.914063l11.207032-11.457032-10.617188-10.742187-18.714844 18.652343-13.40625-13.4375 18.714844-18.730468-10.867187-10.625-11.457031 11.199218v-21.914062h-15.015626v21.914062l-10.957031-11.207031-10.492187 10.617188 18.777344 18.714843-13.375 13.40625-18.699219-18.714843-10.609375 10.867187 11.214844 11.457032h-21.914063v15.015624h21.914063zm53.355469-32.371094 13.40625 13.40625-13.40625 13.40625-13.40625-13.40625zm0 0"/></svg>