<svg height="512pt" viewBox="0 -88 512 512" width="512pt" xmlns="http://www.w3.org/2000/svg"><path d="m224.4375 296.578125h16.03125v15.03125h-16.03125zm0 0"/><path d="m256.5 296.578125h16.03125v15.03125h-16.03125zm0 0"/><path d="m288.5625 296.578125h16.03125v15.03125h-16.03125zm0 0"/><path d="m451.988281 176.34375h-52.207031v-160.3125h-48.09375v-16.03125h-159.3125v87.171875h15.03125v-24.046875h129.25v113.21875h-40.078125v15.03125h149.1875l51.203125 51.203125v29.953125h-289.5625v-25.046875h-15.03125v88.171875h319.625v-99.300781zm-115.332031-128.25h-129.25v-33.0625h129.25zm48.09375 128.25h-33.0625v-17.03125h33.0625zm0-32.0625h-33.0625v-17.03125h33.0625zm0-32.0625h-33.0625v-17.03125h33.0625zm0-32.0625h-33.0625v-17.03125h33.0625zm0-32.0625h-33.0625v-17.03125h33.0625zm112.21875 272.53125h-289.5625v-33.0625h289.5625zm0 0"/><path d="m144.28125 88.171875h16.03125v15.03125h-16.03125zm0 0"/><path d="m32.0625 103.203125h96.1875v-15.03125h-96.1875c-9.117188 0-16.53125-7.667969-16.53125-16.78125 0-9.117187 7.414062-16.660156 16.53125-16.660156s16.53125 7.292969 16.53125 16.410156h15.03125c0-17.40625-14.160156-31.5625-31.5625-31.5625s-31.5625 14.410156-31.5625 31.8125 14.160156 31.8125 31.5625 31.8125zm0 0"/><path d="m64.125 135.265625h80.15625v-15.03125h-80.15625c-17.402344 0-31.5625 13.910156-31.5625 31.3125s14.160156 31.433594 31.5625 31.433594 31.5625-14.28125 31.5625-31.683594h-15.03125c0 9.113281-7.414062 16.53125-16.53125 16.53125s-16.53125-7.167969-16.53125-16.28125c0-9.117187 7.414062-16.28125 16.53125-16.28125zm0 0"/><path d="m192.375 231.453125h15.03125v-21.9375l11.46875 11.21875 10.75-10.628906-18.667969-18.730469 13.449219-13.421875 18.75 18.734375 10.632812-10.378906-11.207031-10.964844h21.933594v-15.03125h-21.933594l11.214844-11.46875-10.625-10.753906-18.734375 18.671875-13.417969-13.449219 18.734375-18.75-10.878906-10.636719-11.46875 11.210938v-21.933594h-15.03125v21.933594l-10.96875-11.21875-10.5 10.628906 18.796875 18.734375-13.390625 13.417969-18.714844-18.734375-10.621094 10.878906 11.226563 11.46875h-21.9375v15.03125h21.9375l-11.21875 10.964844 10.625 10.503906 18.734375-18.796875 13.417969 13.390625-18.730469 18.714844 10.375 10.621094 10.96875-11.226563zm-5.402344-64.125 13.417969-13.421875 13.421875 13.421875-13.421875 13.417969zm0 0"/><path d="m32.0625 200.390625h104.203125v15.03125h-104.203125zm0 0"/><path d="m0 200.390625h16.03125v15.03125h-16.03125zm0 0"/></svg>