<svg height="512pt" viewBox="0 0 512 512" width="512pt" xmlns="http://www.w3.org/2000/svg"><path d="m216.421875 248.484375h16.03125v15.03125h-16.03125zm0 0"/><path d="m248.484375 248.484375h16.03125v15.03125h-16.03125zm0 0"/><path d="m280.546875 248.484375h16.03125v15.03125h-16.03125zm0 0"/><path d="m256.5 103.703125c-83.699219 0-151.796875 68.09375-151.796875 151.796875 0 83.699219 68.097656 151.796875 151.796875 151.796875 83.703125 0 151.796875-68.097656 151.796875-151.796875 0-83.703125-68.09375-151.796875-151.796875-151.796875zm0 288.5625c-75.414062 0-136.765625-61.351563-136.765625-136.765625s61.351563-136.769531 136.765625-136.769531 136.769531 61.355469 136.769531 136.769531-61.355469 136.765625-136.769531 136.765625zm0 0"/><path d="m256.5 151.796875c-57.179688 0-103.703125 46.519531-103.703125 103.703125h15.03125c0-48.894531 39.777344-88.675781 88.671875-88.675781zm0 0"/><path d="m264.066406 0h-15.132812l-26.632813 87.171875h68.402344zm-7.566406 26.671875 13.894531 45.46875h-27.785156zm0 0"/><path d="m248.933594 512h15.132812l26.636719-87.171875h-68.402344zm7.566406-26.671875-13.890625-45.46875h27.785156zm0 0"/><path d="m442.871094 79.828125-10.699219-10.699219-80.472656 42.808594 48.363281 48.363281zm-66.1875 35.839844 41.976562-22.328125-22.328125 41.976562zm0 0"/><path d="m70.132812 431.167969 10.699219 10.699219 80.472657-42.804688-48.367188-48.367188zm66.183594-35.835938-41.976562 22.324219 22.328125-41.972656zm0 0"/><path d="m424.828125 221.296875v68.402344l87.171875-26.632813v-15.132812zm15.03125 48.09375v-27.785156l45.46875 13.894531zm0 0"/><path d="m87.171875 221.296875-87.171875 26.636719v15.132812l87.171875 26.632813zm-15.03125 48.09375-45.46875-13.890625 45.46875-13.894531zm0 0"/><path d="m351.699219 399.0625 80.472656 42.804688 10.699219-10.699219-42.804688-80.472657zm24.984375-3.730469 19.648437-19.648437 22.328125 41.976562zm0 0"/><path d="m161.304688 111.9375-80.472657-42.804688-10.699219 10.695313 42.804688 80.472656zm-24.988282 3.730469-19.648437 19.644531-22.324219-41.972656zm0 0"/></svg>