<svg height="512pt" viewBox="-96 0 512 512.001" width="512pt" xmlns="http://www.w3.org/2000/svg"><path d="m120.148438 272.707031h16.019531v15.019531h-16.019531zm0 0"/><path d="m152.1875 272.707031h16.019531v15.019531h-16.019531zm0 0"/><path d="m184.226562 272.707031h16.019532v15.019531h-16.019532zm0 0"/><path d="m295.359375 304.746094v-137.167969c0-57.136719-45.984375-103.125-103.125-103.125h-1.050781c5.351562-7.007813 8.5625-15.519531 8.5625-24.78125 0-21.804687-17.742188-39.671875-39.550782-39.671875-21.804687 0-39.546874 17.929688-39.546874 39.738281 0 9.257813 3.207031 17.707031 8.5625 24.714844h-1.054688c-57.140625 0-104.125 45.988281-104.125 103.128906v137.164063h-24.03125v55.070312c0 16.300782 10.011719 30.324219 24.03125 36.371094v115.8125h15.015625v-112.652344c1.003906.003906.835937.515625 1.003906.515625h240.292969v112.136719h15.015625v-115.8125c15.019531-6.046875 24.03125-20.074219 24.03125-36.375v-55.066406zm-15.015625-137.167969v137.167969h-49.0625v-169.207032c0-22.433593-10.378906-42.480468-26.582031-55.617187 42.734375 6.292969 75.644531 43.203125 75.644531 87.65625zm-120.148438-152.683594c13.527344 0 24.53125 11.003907 24.53125 24.527344 0 13.527344-11.003906 24.53125-24.53125 24.53125-13.527343 0-24.527343-11.003906-24.527343-24.53125 0-13.523437 11-24.527344 24.527343-24.527344zm-8.007812 64.589844v176.203125h15.015625v-176.203125c28.035156 3.6875 49.0625 27.410156 49.0625 56.054687v169.207032h-113.140625v-169.207032c0-28.644531 22.027344-52.367187 49.0625-56.054687zm-113.140625 88.09375c0-44.453125 32.910156-81.363281 75.644531-87.65625-16.203125 13.136719-26.582031 33.183594-26.582031 55.617187v169.207032h-49.0625zm17.023437 217.265625h-16.019531c-13.527343 0-25.03125-11.503906-25.03125-25.03125v-40.046875h41.050781zm64.078126 0h-49.0625v-65.078125h49.0625zm64.078124 0h-49.0625v-65.078125h49.0625zm64.078126 0h-49.0625v-65.078125h49.0625zm56.066406-25.03125c0 13.527344-10.5 25.03125-24.027344 25.03125h-17.023438v-65.078125h41.050782zm0 0"/></svg>