<svg height="512pt" viewBox="0 -72 512 512" width="512pt" xmlns="http://www.w3.org/2000/svg"><path d="m184.179688 127.625v-15.015625c-39.464844 0-71.570313 32.105469-71.570313 71.570313h15.015625c0-31.183594 25.371094-56.554688 56.554688-56.554688zm0 0"/><path d="m79.578125 184.179688c0-57.679688 46.925781-104.601563 104.601563-104.601563 24.578124 0 48.457031 8.691406 67.242187 24.472656l9.65625-11.496093c-21.484375-18.050782-48.792969-27.992188-76.898437-27.992188-65.957032 0-119.617188 53.660156-119.617188 119.617188 0 36.875 16.625 71.128906 45.617188 93.984374l9.296874-11.789062c-25.359374-19.992188-39.898437-49.949219-39.898437-82.195312zm0 0"/><path d="m461.648438 257.003906c1.519531-8.140625 2.304687-16.433594 2.304687-24.777344 0-74.789062-60.84375-135.632812-135.632813-135.632812-72.394531 0-131.722656 57.011719-135.445312 128.496094-36.039062 3.679687-64.25 34.457031-64.25 71.449218 0 39.464844 32.105469 71.820313 71.570312 71.820313h256.25c30.632813 0 55.554688-25.171875 55.554688-55.804687 0-28.875-22.148438-52.917969-50.351562-55.550782zm-5.203126 96.339844h-256.25c-31.183593 0-56.554687-25.621094-56.554687-56.804688 0-28.71875 21.527344-52.617187 49.289063-56.199218.511718 8.773437 1.855468 17.394531 4.03125 25.851562l14.539062-3.773437c-2.519531-9.796875-3.796875-19.960938-3.796875-30.175781 0-66.511719 54.109375-120.628907 120.617187-120.628907 66.507813 0 120.617188 54.105469 120.617188 120.617188 0 27.726562-9.148438 53.792969-26.453125 75.378906l11.714844 9.390625c10.777343-13.445312 18.835937-28.835938 23.828125-45.195312 21.621094.835937 38.957031 18.925781 38.957031 40.75 0 22.355468-18.183594 40.789062-40.539063 40.789062zm0 0"/><path d="m240.734375 232.226562h15.015625c0-40.015624 32.554688-72.570312 72.570312-72.570312v-15.015625c-48.292968 0-87.585937 39.289063-87.585937 87.585937zm0 0"/><path d="m280.273438 313.304688h16.015624v15.015624h-16.015624zm0 0"/><path d="m312.304688 313.304688h16.015624v15.015624h-16.015624zm0 0"/><path d="m344.335938 313.304688h16.015624v15.015624h-16.015624zm0 0"/><path d="m0 177.171875h48.046875v15.015625h-48.046875zm0 0"/><path d="m176.171875 0h15.015625v48.046875h-15.015625zm0 0"/><path d="m314.988281 42.742188 10.617188 10.617187-40.039063 40.039063-10.617187-10.617188zm0 0"/><path d="m53.367188 325.632812-10.617188-10.617187 40.039062-40.039063 10.617188 10.617188zm0 0"/><path d="m53.355469 42.738281 40.039062 40.039063-10.617187 10.617187-40.039063-40.039062zm0 0"/></svg>