<svg height="512pt" viewBox="0 -132 512 512" width="512pt" xmlns="http://www.w3.org/2000/svg"><path d="m456.890625 89.175781v15.027344h8.015625v72.140625c0 31.214844-24.894531 57.113281-56.109375 57.113281h-64.125c-31.214844 0-57.109375-25.898437-57.109375-57.113281v-72.140625h73.140625v-15.027344h-360.703125v47.089844h32.0625v40.078125c0 39.503906 32.640625 72.140625 72.140625 72.140625h64.125c39.503906 0 71.140625-32.636719 71.140625-72.140625v-40.078125h33.0625v40.078125c0 39.503906 32.640625 72.140625 72.140625 72.140625h64.125c39.503906 0 71.140625-32.636719 71.140625-72.140625v-40.078125h32.0625v-47.089844zm-424.828125 32.0625h-17.03125v-17.035156h17.03125zm192.375 55.105469c0 31.214844-24.894531 57.113281-56.109375 57.113281h-64.125c-31.214844 0-57.109375-25.898437-57.109375-57.113281v-72.140625h177.34375zm48.09375-55.105469h-33.0625v-17.035156h33.0625zm224.4375 0h-17.03125v-17.035156h17.03125zm0 0"/><path d="m122.9375 114.917969 10.628906 10.628906-64.125 64.125-10.628906-10.628906zm0 0"/><path d="m117.53125 189.675781-10.628906-10.625 24.046875-24.046875 10.628906 10.625zm0 0"/><path d="m374.039062 125.550781-64.125 64.125-10.628906-10.628906 64.125-64.125zm0 0"/><path d="m358.003906 189.679688-10.628906-10.628907 24.046875-24.046875 10.628906 10.628906zm0 0"/><path d="m401.285156 128.25h15.027344c0-13.535156 11.011719-24.546875 24.546875-24.546875v-15.03125c-13.535156 0-24.546875-11.011719-24.546875-24.546875h-15.027344c0 13.535156-11.011718 24.546875-24.550781 24.546875v15.03125c13.539063 0 24.550781 11.011719 24.550781 24.546875zm7.511719-40.964844c2.476563 3.421875 5.484375 6.425782 8.902344 8.902344-3.417969 2.476562-6.425781 5.484375-8.902344 8.902344-2.472656-3.417969-5.480469-6.425782-8.898437-8.902344 3.417968-2.476562 6.425781-5.480469 8.898437-8.902344zm0 0"/><path d="m457.394531 64.125h15.027344c0-13.535156 11.011719-24.546875 24.546875-24.546875v-15.03125c-13.535156 0-24.546875-11.011719-24.546875-24.546875h-15.027344c0 13.535156-11.011719 24.546875-24.550781 24.546875v15.03125c13.539062 0 24.550781 11.011719 24.550781 24.546875zm7.511719-40.964844c2.476562 3.417969 5.484375 6.425782 8.902344 8.902344-3.417969 2.476562-6.425782 5.484375-8.902344 8.902344-2.472656-3.417969-5.480469-6.425782-8.898438-8.902344 3.417969-2.476562 6.425782-5.484375 8.898438-8.902344zm0 0"/></svg>