<svg height="512pt" viewBox="0 -80 512 512" width="512pt" xmlns="http://www.w3.org/2000/svg"><path d="m328.140625 47.84375c-48.34375 0-87.671875 39.328125-87.671875 87.671875h15.03125c0-40.054687 32.585938-72.644531 72.640625-72.644531zm0 0"/><path d="m280.046875 176.59375h16.03125v15.03125h-16.03125zm0 0"/><path d="m312.109375 176.59375h16.03125v15.03125h-16.03125zm0 0"/><path d="m344.171875 176.59375h16.03125v15.03125h-16.03125zm0 0"/><path d="m461.601562 160.3125c1.519532-8.144531 2.304688-16.449219 2.304688-24.796875 0-74.863281-60.902344-135.515625-135.765625-135.515625-72.339844 0-131.640625 56.359375-135.554687 128.5h-128.960938c-17.402344 0-31.5625 13.910156-31.5625 31.3125s14.160156 31.4375 31.5625 31.4375 31.5625-14.285156 31.5625-31.6875h-15.03125c0 9.113281-7.417969 16.53125-16.53125 16.53125-9.117188 0-16.53125-7.164062-16.53125-16.28125s7.414062-16.28125 16.53125-16.28125h92.441406c-16.90625 13.023438-27.816406 33.605469-27.816406 56.609375s10.910156 42.582031 27.816406 56.609375h-124.503906c-9.117188 0-16.53125-7.664062-16.53125-16.78125s7.414062-16.65625 16.53125-16.65625 16.53125 7.289062 16.53125 16.40625h15.03125c0-17.402344-14.160156-31.5625-31.5625-31.5625s-31.5625 14.410156-31.5625 31.8125 14.160156 31.8125 31.5625 31.8125h208.40625v-15.03125h-40.078125c-31.214844 0-56.609375-25.644531-56.609375-56.859375 0-28.75 21.546875-52.671875 49.335938-56.253906.511718 8.78125 1.859374 17.410156 4.035156 25.875l14.554687-3.777344c-2.523437-9.804687-3.804687-19.980469-3.804687-30.203125 0-66.574219 54.164062-120.746094 120.738281-120.746094s120.734375 54.160156 120.734375 120.734375c0 27.753907-9.152344 53.84375-26.476562 75.453125l11.726562 9.398438c10.789062-13.457032 18.851562-28.863282 23.851562-45.238282 21.640626.835938 38.992188 18.945313 38.992188 40.789063 0 22.375-18.203125 40.828125-40.578125 40.828125h-176.34375c-9.117187 0-16.53125-7.664062-16.53125-16.78125s7.414063-16.65625 16.53125-16.65625 16.53125 7.289062 16.53125 16.40625h15.03125c0-17.402344-14.160156-31.5625-31.5625-31.5625s-31.5625 14.410156-31.5625 31.8125 14.160156 31.8125 31.5625 31.8125h176.34375c30.664063 0 55.609375-25.195312 55.609375-55.859375 0-28.90625-22.171875-52.972656-50.398438-55.609375zm0 0"/><path d="m159.8125 96.4375h16.03125v15.03125h-16.03125zm0 0"/><path d="m31.5625 111.46875h112.21875v-15.03125h-112.21875c-9.117188 0-16.53125-7.667969-16.53125-16.78125 0-9.117188 7.414062-16.660156 16.53125-16.660156 9.113281 0 16.53125 7.292968 16.53125 16.410156h15.03125c0-17.402344-14.160156-31.5625-31.5625-31.5625s-31.5625 14.40625-31.5625 31.8125c0 17.402344 14.160156 31.8125 31.5625 31.8125zm0 0"/><path d="m48.09375 320.125c0 17.402344 14.160156 31.4375 31.5625 31.4375s31.5625-14.285156 31.5625-31.6875h-15.03125c0 9.117188-7.417969 16.53125-16.53125 16.53125-9.117188 0-16.53125-7.164062-16.53125-16.28125s7.414062-16.28125 16.53125-16.28125h144.28125v-15.03125h-144.28125c-17.402344 0-31.5625 13.910156-31.5625 31.3125zm0 0"/><path d="m239.96875 288.8125h16.03125v15.03125h-16.03125zm0 0"/></svg>