<svg height="512pt" viewBox="0 -32 512 512" width="512pt" xmlns="http://www.w3.org/2000/svg"><path d="m215.921875 240.59375h16.03125v15.03125h-16.03125zm0 0"/><path d="m247.984375 240.59375h16.03125v15.03125h-16.03125zm0 0"/><path d="m280.046875 240.59375h16.03125v15.03125h-16.03125zm0 0"/><path d="m436.351562 184.484375h-5.308593c.527343-6.011719.800781-11.222656.800781-16.78125 0-92.542969-75.289062-167.703125-167.828125-167.703125-84.550781 0-154.683594 62.246094-166.167969 144.40625h-2.160156c-52.761719 0-95.6875 42.925781-95.6875 95.6875s42.925781 95.6875 95.6875 95.6875h8.015625v-15.03125h-8.015625c-44.476562 0-80.65625-36.179688-80.65625-80.65625s36.179688-80.65625 80.65625-80.65625h.714844c-.140625 2.003906-.214844 5.410156-.214844 8.265625 0 11.292969 1.128906 22.460937 3.359375 33.433594l14.726563-3.054688c-2.027344-9.988281-3.054688-20.304687-3.054688-30.597656 0-84.253906 68.542969-152.816406 152.796875-152.816406s152.796875 68.539062 152.796875 152.792969c0 33.375-10.5625 65.078124-30.554688 91.683593l12.015626 9.277344c15.546874-20.691406 25.898437-44.859375 30.621093-68.90625h7.457031c33.425782 0 60.617188 27.191406 60.617188 60.617187 0 33.425782-27.191406 60.617188-60.617188 60.617188h-12.023437v15.03125h12.023437c41.714844 0 75.648438-33.9375 75.648438-75.648438 0-41.714843-33.933594-75.648437-75.648438-75.648437zm0 0"/><path d="m264.015625 55.734375c-61.601563 0-111.71875 50.117187-111.71875 111.71875h15.03125c0-53.316406 43.375-96.691406 96.6875-96.691406zm0 0"/><path d="m372.363281 272.65625h-72.914062l-47.59375 95.1875h56.109375l-40.078125 80.15625h23.453125l118.160156-127.25h-61.183594zm2.671875 63.125-74.171875 79.875 31.421875-62.84375h-56.109375l32.5625-65.125h39.304688l-24.046875 48.09375zm0 0"/><path d="m204.035156 320.75 24.046875-48.09375h-72.914062l-47.59375 95.1875h56.109375l-40.078125 80.15625h23.453125l118.160156-127.25zm-16.03125 32.0625h-56.109375l32.5625-65.125h39.304688l-24.046875 48.09375h51.035156l-74.167969 79.875zm0 0"/></svg>