<svg height="511pt" viewBox="0 1 511 511.99999" width="511pt" xmlns="http://www.w3.org/2000/svg"><path d="m280.273438 280.773438h16.015624v15.015624h-16.015624zm0 0"/><path d="m312.304688 280.773438h16.015624v15.015624h-16.015624zm0 0"/><path d="m344.335938 280.773438h16.015624v15.015624h-16.015624zm0 0"/><path d="m15.515625 199.945312c0-28.722656 21.523437-52.621093 49.289063-56.199218.507812 8.773437 1.855468 17.394531 4.03125 25.851562l14.539062-3.777344c-2.519531-9.792968-3.796875-19.957031-3.796875-30.171874 0-66.511719 54.105469-120.628907 120.617187-120.628907 34.582032 0 67.554688 14.878907 90.460938 40.832031l11.257812-9.941406c-25.753906-29.175781-62.828124-45.910156-101.71875-45.910156-72.394531 0-131.722656 57.011719-135.445312 128.496094-36.039062 3.679687-64.25 34.457031-64.25 71.449218 0 39.464844 32.105469 71.820313 71.570312 71.820313h40.039063v-15.015625h-40.039063c-31.1875 0-56.554687-25.621094-56.554687-56.804688zm0 0"/><path d="m200.195312 63.0625v-15.015625c-48.296874 0-87.585937 39.289063-87.585937 87.585937h15.015625c0-40.015624 32.554688-72.570312 72.570312-72.570312zm0 0"/><path d="m461.648438 224.46875c1.519531-8.136719 2.304687-16.433594 2.304687-24.773438 0-74.789062-60.84375-135.632812-135.632813-135.632812-72.394531 0-131.722656 57.011719-135.445312 128.496094-36.039062 3.675781-64.25 34.457031-64.25 71.449218 0 39.460938 32.105469 71.820313 71.570312 71.820313h256.25c30.632813 0 55.554688-25.171875 55.554688-55.804687 0-28.878907-22.148438-52.921876-50.351562-55.554688zm-5.203126 96.34375h-256.25c-31.183593 0-56.554687-25.621094-56.554687-56.804688 0-28.722656 21.527344-52.617187 49.289063-56.199218.511718 8.773437 1.855468 17.394531 4.03125 25.851562l14.542968-3.773437c-2.523437-9.796875-3.800781-19.960938-3.800781-30.175781 0-66.511719 54.109375-120.628907 120.617187-120.628907 66.507813 0 120.617188 54.105469 120.617188 120.617188 0 27.726562-9.144531 53.792969-26.449219 75.378906l11.714844 9.390625c10.777344-13.445312 18.832031-28.835938 23.824219-45.195312 21.625.835937 38.957031 18.925781 38.957031 40.75 0 22.351562-18.183594 40.789062-40.539063 40.789062zm0 0"/><path d="m240.734375 199.695312h15.015625c0-40.015624 32.554688-72.570312 72.570312-72.570312v-15.015625c-48.296874 0-87.585937 39.289063-87.585937 87.585937zm0 0"/><path d="m88.085938 287.78125h15.011718v160.15625h-15.011718zm0 0"/><path d="m128.125 335.828125h15.011719v144.140625h-15.011719zm0 0"/><path d="m168.164062 495.984375h15.015626v16.015625h-15.015626zm0 0"/><path d="m168.164062 351.84375h15.015626v128.125h-15.015626zm0 0"/><path d="m208.203125 351.84375h15.015625v160.15625h-15.015625zm0 0"/><path d="m248.242188 351.84375h15.015624v112.109375h-15.015624zm0 0"/><path d="m288.28125 351.84375h15.015625v160.15625h-15.015625zm0 0"/><path d="m328.320312 351.84375h15.015626v144.140625h-15.015626zm0 0"/><path d="m368.359375 463.953125h15.015625v16.015625h-15.015625zm0 0"/><path d="m368.359375 351.84375h15.015625v96.09375h-15.015625zm0 0"/><path d="m408.398438 351.84375h15.015624v160.15625h-15.015624zm0 0"/></svg>